<svg width="71" height="34" viewBox="0 0 71 34" fill="none" xmlns="http://www.w3.org/2000/svg">
<path d="M2.81276 16.3418V23.899L6.35535 20.2296H9.68096L5.82081 23.9777L10.1149 30.4298H6.71039L3.8996 25.8714L2.81079 26.9175V30.4298H0V16.3418H2.81276Z" fill="black"/>
<path d="M15.0057 33.4669C14.4651 33.8229 13.7117 33.9998 12.7491 33.9998C12.4592 33.9998 12.1712 33.99 11.8891 33.9703C11.6051 33.9507 11.3191 33.927 11.0291 33.9015V31.5929C11.2934 31.6184 11.5637 31.646 11.8398 31.6715C12.1159 31.697 12.3941 31.7049 12.6702 31.6911C13.0391 31.6519 13.3132 31.5064 13.4908 31.2566C13.6683 31.0068 13.7571 30.7295 13.7571 30.4287C13.7571 30.2045 13.7176 29.9941 13.6386 29.7974L10.0566 20.2285H13.045L15.3606 27.2135H15.4001L17.6369 20.2285H20.5463L16.2719 31.6931C15.9682 32.521 15.5461 33.113 15.0057 33.4669Z" fill="black"/>
<path d="M27.7318 29.1279C27.4024 29.6805 26.9703 30.0778 26.4359 30.3216C25.9013 30.5653 25.2977 30.6873 24.6251 30.6873C23.8597 30.6873 23.1871 30.5398 22.6072 30.2429C22.0274 29.946 21.548 29.5468 21.1732 29.0394C20.7966 28.534 20.5125 27.9519 20.3231 27.2932C20.1318 26.6363 20.0352 25.9521 20.0352 25.2401C20.0352 24.5559 20.1298 23.8951 20.3231 23.258C20.5144 22.6208 20.7985 22.0584 21.1732 21.5707C21.55 21.085 22.0214 20.6917 22.5876 20.3967C23.1556 20.0998 23.8144 19.9523 24.5659 19.9523C25.1734 19.9523 25.7494 20.0802 26.2977 20.3377C26.8442 20.5934 27.2781 20.9729 27.5937 21.4723H27.6331V16.3418H30.444V30.4298H27.7712V29.1279H27.7318ZM27.6134 24.0859C27.5346 23.6984 27.3985 23.3562 27.2071 23.0593C27.0158 22.7624 26.7691 22.5244 26.4654 22.3396C26.1616 22.1547 25.779 22.0623 25.3175 22.0623C24.8559 22.0623 24.4673 22.1547 24.1497 22.3396C23.8321 22.5244 23.5797 22.7663 23.3883 23.0691C23.197 23.372 23.059 23.7182 22.9722 24.1055C22.8854 24.4929 22.8439 24.898 22.8439 25.3188C22.8439 25.7141 22.8893 26.1074 22.982 26.5026C23.0747 26.8979 23.2227 27.2499 23.4278 27.5586C23.6329 27.8674 23.8894 28.1171 24.1991 28.3079C24.5087 28.4986 24.8815 28.5949 25.3175 28.5949C25.779 28.5949 26.1657 28.5026 26.4753 28.3196C26.785 28.1349 27.0335 27.889 27.217 27.5803C27.4024 27.2715 27.5346 26.9195 27.6134 26.5243C27.6923 26.129 27.7318 25.7219 27.7318 25.3011C27.7318 24.8783 27.6923 24.4752 27.6134 24.0859Z" fill="black"/>
<path d="M38.8928 16.3418V30.4298H36.082V16.3418H38.8928Z" fill="black"/>
<path d="M39.962 23.365C40.0015 22.7081 40.1673 22.1614 40.4572 21.7269C40.7472 21.2923 41.116 20.9442 41.5657 20.6807C42.0135 20.4171 42.5185 20.2304 43.0806 20.1183C43.6408 20.0061 44.2049 19.9512 44.7729 19.9512C45.2879 19.9512 45.8086 19.9885 46.3371 20.0593C46.8638 20.132 47.347 20.2736 47.781 20.484C48.2169 20.6944 48.572 20.9874 48.8501 21.3631C49.1282 21.7386 49.2663 22.2342 49.2663 22.8536V28.1612C49.2663 28.6214 49.2919 29.0618 49.3452 29.4827C49.3984 29.9035 49.4911 30.2201 49.6213 30.4306H46.7711C46.7178 30.2732 46.6744 30.1119 46.6429 29.9468C46.6093 29.7815 46.5856 29.6144 46.5739 29.4433C46.1261 29.9035 45.5974 30.226 44.9899 30.4108C44.3824 30.5957 43.763 30.6861 43.1299 30.6861C42.6407 30.6861 42.1871 30.6271 41.7649 30.5092C41.3428 30.3912 40.974 30.2063 40.6564 29.9566C40.3388 29.7068 40.0922 29.3903 39.9147 29.0087C39.7372 28.6273 39.6484 28.173 39.6484 27.648C39.6484 27.0697 39.751 26.592 39.9561 26.2183C40.1613 25.8427 40.4236 25.5438 40.7472 25.3197C41.0706 25.0954 41.4394 24.9283 41.8557 24.8162C42.2719 24.7042 42.69 24.6156 43.1121 24.5508C43.5342 24.4859 43.9505 24.4328 44.3588 24.3934C44.767 24.3541 45.13 24.2951 45.4476 24.2165C45.7652 24.1378 46.0156 24.0218 46.1991 23.8704C46.3846 23.719 46.4693 23.4986 46.4555 23.2096C46.4555 22.9068 46.4061 22.6669 46.3076 22.4899C46.209 22.3128 46.0768 22.1732 45.9111 22.0749C45.7454 21.9766 45.554 21.9098 45.3371 21.8783C45.1201 21.8449 44.8854 21.8292 44.6349 21.8292C44.0807 21.8292 43.6447 21.9471 43.3291 22.1851C43.0116 22.421 42.8282 22.8163 42.7748 23.3689H39.962V23.365ZM46.4536 25.4356C46.3352 25.5419 46.1873 25.6225 46.0078 25.6815C45.8303 25.7405 45.6389 25.7896 45.4338 25.829C45.2286 25.8682 45.0156 25.9017 44.7907 25.9272C44.5658 25.9529 44.343 25.9863 44.1181 26.0256C43.9071 26.0649 43.6999 26.118 43.4948 26.1829C43.2896 26.2498 43.1121 26.3383 42.9602 26.4484C42.8084 26.5605 42.6861 26.702 42.5934 26.8732C42.5007 27.0442 42.4553 27.2605 42.4553 27.524C42.4553 27.7738 42.5007 27.9842 42.5934 28.1553C42.6861 28.3263 42.8104 28.4601 42.9701 28.5604C43.1279 28.6587 43.3133 28.7275 43.5244 28.7669C43.7354 28.8062 43.9524 28.8259 44.1773 28.8259C44.7316 28.8259 45.1596 28.7334 45.4633 28.5506C45.7671 28.3657 45.99 28.1455 46.1359 27.8898C46.2819 27.6342 46.3707 27.3746 46.4022 27.1111C46.4358 26.8475 46.4515 26.6371 46.4515 26.4798V25.4356H46.4536Z" fill="black"/>
<path d="M53.2229 16.3418V21.4723H53.2623C53.6056 20.9473 54.0711 20.5619 54.6569 20.3181C55.2447 20.0742 55.8542 19.9523 56.4874 19.9523C57.0022 19.9523 57.5091 20.0585 58.0121 20.2689C58.5131 20.4793 58.9648 20.8018 59.3672 21.2364C59.7696 21.671 60.097 22.2255 60.3475 22.904C60.598 23.5825 60.7243 24.3867 60.7243 25.3207C60.7243 26.2549 60.598 27.0611 60.3475 27.7376C60.097 28.4161 59.7696 28.9706 59.3672 29.4052C58.9648 29.8398 58.5131 30.1623 58.0121 30.3727C57.5111 30.5831 57.0022 30.6893 56.4874 30.6893C55.7359 30.6893 55.0633 30.5713 54.4695 30.3333C53.8758 30.0974 53.4261 29.6962 53.1243 29.1299H53.0849V30.4317H50.4121V16.3418H53.2229ZM57.7754 24.0957C57.6827 23.7004 57.5388 23.3523 57.3395 23.0495C57.1423 22.7467 56.8937 22.5067 56.5979 22.3298C56.3 22.1528 55.941 22.0643 55.5189 22.0643C55.1106 22.0643 54.7536 22.1528 54.4499 22.3298C54.1461 22.5067 53.8956 22.7467 53.6983 23.0495C53.501 23.3523 53.3551 23.7004 53.2623 24.0957C53.1696 24.491 53.1243 24.9038 53.1243 25.3385C53.1243 25.7593 53.1696 26.1664 53.2623 26.5616C53.3551 26.9569 53.4991 27.305 53.6983 27.6078C53.8956 27.9107 54.1461 28.1506 54.4499 28.3275C54.7536 28.5045 55.1086 28.593 55.5189 28.593C55.941 28.593 56.3 28.5045 56.5979 28.3275C56.8957 28.1506 57.1423 27.9107 57.3395 27.6078C57.5368 27.305 57.6827 26.9569 57.7754 26.5616C57.8681 26.1664 57.9135 25.7593 57.9135 25.3385C57.9135 24.9059 57.8681 24.491 57.7754 24.0957Z" fill="black"/>
<path d="M63.8386 27.8937C63.9629 28.11 64.1266 28.289 64.3239 28.4267C64.521 28.5643 64.7499 28.6665 65.0063 28.7334C65.2628 28.8003 65.531 28.8318 65.8072 28.8318C66.0044 28.8318 66.2135 28.8081 66.4305 28.763C66.6475 28.7177 66.8466 28.6449 67.0241 28.5467C67.2017 28.4483 67.3516 28.3165 67.4699 28.1514C67.5883 27.9862 67.6475 27.7797 67.6475 27.5299C67.6475 27.1091 67.3674 26.7926 66.8072 26.5822C66.2471 26.3716 65.464 26.1613 64.4619 25.9509C64.0537 25.8584 63.6532 25.7503 63.2646 25.6244C62.876 25.5005 62.5288 25.3354 62.2251 25.1309C61.9213 24.9263 61.6767 24.6707 61.4933 24.362C61.3079 24.0532 61.2152 23.6757 61.2152 23.2273C61.2152 22.5705 61.3435 22.0297 61.6018 21.6088C61.8583 21.188 62.1995 20.8558 62.6216 20.6119C63.0438 20.3681 63.5191 20.1969 64.0457 20.0986C64.5724 20.0003 65.1148 19.9512 65.6691 19.9512C66.2234 19.9512 66.7599 20.0042 67.2826 20.1085C67.8033 20.2146 68.2688 20.3916 68.6771 20.6414C69.0855 20.8911 69.4267 21.2235 69.6969 21.6384C69.9671 22.0533 70.1289 22.5764 70.1822 23.2076H67.5094C67.4699 22.6689 67.2648 22.303 66.896 22.1123C66.5271 21.9216 66.0912 21.8251 65.5902 21.8251C65.4324 21.8251 65.2608 21.8351 65.0753 21.8547C64.89 21.8743 64.7223 21.9176 64.5704 21.9825C64.4185 22.0494 64.2903 22.1438 64.1839 22.2696C64.0773 22.3955 64.026 22.5626 64.026 22.773C64.026 23.0228 64.1188 23.2273 64.3022 23.3846C64.4876 23.5419 64.7282 23.6717 65.0241 23.77C65.3219 23.8684 65.6611 23.9569 66.0439 24.0355C66.4265 24.1141 66.8151 24.2008 67.2116 24.2912C67.6199 24.3836 68.0203 24.4957 68.4088 24.6275C68.7975 24.7591 69.1446 24.9322 69.4484 25.1505C69.7521 25.3668 69.9967 25.6382 70.1801 25.9588C70.3656 26.2812 70.4583 26.6785 70.4583 27.1524C70.4583 27.8229 70.3222 28.3853 70.052 28.8396C69.7818 29.2939 69.4287 29.6577 68.9927 29.935C68.5568 30.2102 68.0598 30.4049 67.4976 30.5171C66.9373 30.6291 66.3654 30.6842 65.7855 30.6842C65.1918 30.6842 64.6119 30.6252 64.0437 30.5072C63.4757 30.3892 62.9707 30.1906 62.5288 29.9153C62.0871 29.64 61.7242 29.2742 61.4401 28.82C61.156 28.3657 61.0022 27.7974 60.9746 27.113H63.6472C63.6513 27.416 63.7143 27.6755 63.8386 27.8937Z" fill="black"/>
<path d="M41.2844 8.84917V6.7314H36.0284L39.7376 3.03333L38.2542 1.51605L34.5448 5.21412V0H32.3822L32.3946 5.17706L28.7112 1.51605L27.1893 3.03333L30.911 6.7314H25.6426V8.84917H41.2844Z" fill="black"/>
</svg>
