<svg width="150" height="150" viewBox="0 0 150 150" fill="none" xmlns="http://www.w3.org/2000/svg">
<g clip-path="url(#clip0_294_1091)">
<path d="M59.4827 0C60.9111 0 62.0689 1.15789 62.0689 2.58618C62.0689 4.01455 60.9111 5.17236 59.4827 5.17236C58.0544 5.17236 56.8965 4.01455 56.8965 2.58618C56.8965 1.15789 58.0544 0 59.4827 0Z" fill="#391313"/>
<path d="M69.8245 0C71.2529 0 72.4108 1.15789 72.4108 2.58618C72.4108 4.01455 71.2529 5.17236 69.8245 5.17236C68.3962 5.17236 67.2383 4.01455 67.2383 2.58618C67.2383 1.15789 68.3962 0 69.8245 0Z" fill="#391313"/>
<path d="M90.5178 0C91.9462 0 93.104 1.15789 93.104 2.58618C93.104 4.01455 91.9462 5.17236 90.5178 5.17236C89.0895 5.17236 87.9316 4.01455 87.9316 2.58618C87.9316 1.15789 89.0895 0 90.5178 0Z" fill="#391313"/>
<path d="M95.6917 0C97.1201 0 98.2779 1.15789 98.2779 2.58618C98.2779 4.01455 97.1201 5.17236 95.6917 5.17236C94.2634 5.17236 93.1055 4.01455 93.1055 2.58618C93.1055 1.15789 94.2634 0 95.6917 0Z" fill="#391313"/>
<path d="M100.862 0C102.29 0 103.448 1.15789 103.448 2.58618C103.448 4.01455 102.29 5.17236 100.862 5.17236C99.4333 5.17236 98.2754 4.01455 98.2754 2.58618C98.2754 1.15789 99.4333 0 100.862 0Z" fill="#391313"/>
<path d="M106.03 0C107.458 0 108.616 1.15789 108.616 2.58618C108.616 4.01455 107.458 5.17236 106.03 5.17236C104.601 5.17236 103.443 4.01455 103.443 2.58618C103.443 1.15789 104.601 0 106.03 0Z" fill="#391313"/>
<path d="M49.135 5.17578C50.5634 5.17578 51.7212 6.33367 51.7212 7.76197C51.7212 9.19034 50.5634 10.3481 49.135 10.3481C47.7067 10.3481 46.5488 9.19034 46.5488 7.76197C46.5488 6.33367 47.7067 5.17578 49.135 5.17578Z" fill="#391313"/>
<path d="M69.8246 5.17578C71.2529 5.17578 72.4108 6.33367 72.4108 7.76197C72.4108 9.19034 71.2529 10.3481 69.8246 10.3481C68.3962 10.3481 67.2383 9.19034 67.2383 7.76197C67.2383 6.33367 68.3962 5.17578 69.8246 5.17578Z" fill="#391313"/>
<path d="M90.5178 5.17578C91.9462 5.17578 93.104 6.33367 93.104 7.76197C93.104 9.19034 91.9462 10.3481 90.5178 10.3481C89.0895 10.3481 87.9316 9.19034 87.9316 7.76197C87.9316 6.33367 89.0895 5.17578 90.5178 5.17578Z" fill="#391313"/>
<path d="M95.6917 5.17578C97.1201 5.17578 98.2779 6.33367 98.2779 7.76197C98.2779 9.19034 97.1201 10.3481 95.6917 10.3481C94.2634 10.3481 93.1055 9.19034 93.1055 7.76197C93.1055 6.33367 94.2634 5.17578 95.6917 5.17578Z" fill="#391313"/>
<path d="M100.862 5.17578C102.29 5.17578 103.448 6.33367 103.448 7.76197C103.448 9.19034 102.29 10.3481 100.862 10.3481C99.4333 10.3481 98.2754 9.19034 98.2754 7.76197C98.2754 6.33367 99.4333 5.17578 100.862 5.17578Z" fill="#391313"/>
<path d="M43.9651 10.3438C45.3935 10.3438 46.5514 11.5017 46.5514 12.93C46.5514 14.3583 45.3935 15.5161 43.9651 15.5161C42.5368 15.5161 41.3789 14.3583 41.3789 12.93C41.3789 11.5017 42.5368 10.3438 43.9651 10.3438Z" fill="#391313"/>
<path d="M95.6917 10.3438C97.1201 10.3438 98.2779 11.5017 98.2779 12.93C98.2779 14.3583 97.1201 15.5161 95.6917 15.5161C94.2634 15.5161 93.1055 14.3583 93.1055 12.93C93.1055 11.5017 94.2634 10.3438 95.6917 10.3438Z" fill="#391313"/>
<path d="M100.862 10.3438C102.29 10.3438 103.448 11.5017 103.448 12.93C103.448 14.3583 102.29 15.5161 100.862 15.5161C99.4333 15.5161 98.2754 14.3583 98.2754 12.93C98.2754 11.5017 99.4333 10.3438 100.862 10.3438Z" fill="#391313"/>
<path d="M106.03 10.3438C107.458 10.3438 108.616 11.5017 108.616 12.93C108.616 14.3583 107.458 15.5161 106.03 15.5161C104.601 15.5161 103.443 14.3583 103.443 12.93C103.443 11.5017 104.601 10.3438 106.03 10.3438Z" fill="#391313"/>
<path d="M43.9651 15.5176C45.3935 15.5176 46.5514 16.6755 46.5514 18.1038C46.5514 19.5321 45.3935 20.6899 43.9651 20.6899C42.5368 20.6899 41.3789 19.5321 41.3789 18.1038C41.3789 16.6755 42.5368 15.5176 43.9651 15.5176Z" fill="#391313"/>
<path d="M59.4827 15.5176C60.9111 15.5176 62.0689 16.6755 62.0689 18.1038C62.0689 19.5321 60.9111 20.6899 59.4827 20.6899C58.0544 20.6899 56.8965 19.5321 56.8965 18.1038C56.8965 16.6755 58.0544 15.5176 59.4827 15.5176Z" fill="#391313"/>
<path d="M64.6547 15.5176C66.0831 15.5176 67.241 16.6755 67.241 18.1038C67.241 19.5321 66.0831 20.6899 64.6547 20.6899C63.2264 20.6899 62.0684 19.5321 62.0684 18.1038C62.0684 16.6755 63.2264 15.5176 64.6547 15.5176Z" fill="#391313"/>
<path d="M74.9944 15.5176C76.4228 15.5176 77.5806 16.6755 77.5806 18.1038C77.5806 19.5321 76.4228 20.6899 74.9944 20.6899C73.5661 20.6899 72.4082 19.5321 72.4082 18.1038C72.4082 16.6755 73.5661 15.5176 74.9944 15.5176Z" fill="#391313"/>
<path d="M85.344 15.5176C86.7724 15.5176 87.9302 16.6755 87.9302 18.1038C87.9302 19.5321 86.7724 20.6899 85.344 20.6899C83.9157 20.6899 82.7578 19.5321 82.7578 18.1038C82.7578 16.6755 83.9157 15.5176 85.344 15.5176Z" fill="#391313"/>
<path d="M90.5179 15.5176C91.9463 15.5176 93.1041 16.6755 93.1041 18.1038C93.1041 19.5321 91.9463 20.6899 90.5179 20.6899C89.0896 20.6899 87.9316 19.5321 87.9316 18.1038C87.9316 16.6755 89.0896 15.5176 90.5179 15.5176Z" fill="#391313"/>
<path d="M95.6917 15.5176C97.1201 15.5176 98.2779 16.6755 98.2779 18.1038C98.2779 19.5321 97.1201 20.6899 95.6917 20.6899C94.2634 20.6899 93.1055 19.5321 93.1055 18.1038C93.1055 16.6755 94.2634 15.5176 95.6917 15.5176Z" fill="#391313"/>
<path d="M100.862 15.5176C102.29 15.5176 103.448 16.6755 103.448 18.1038C103.448 19.5321 102.29 20.6899 100.862 20.6899C99.4333 20.6899 98.2754 19.5321 98.2754 18.1038C98.2754 16.6755 99.4333 15.5176 100.862 15.5176Z" fill="#391313"/>
<path d="M49.135 20.6914C50.5634 20.6914 51.7212 21.8492 51.7212 23.2775C51.7212 24.7059 50.5634 25.8637 49.135 25.8637C47.7067 25.8637 46.5488 24.7059 46.5488 23.2775C46.5488 21.8492 47.7067 20.6914 49.135 20.6914Z" fill="#391313"/>
<path d="M54.3128 20.6914C55.7412 20.6914 56.8991 21.8492 56.8991 23.2775C56.8991 24.7059 55.7412 25.8637 54.3128 25.8637C52.8845 25.8637 51.7266 24.7059 51.7266 23.2775C51.7266 21.8492 52.8845 20.6914 54.3128 20.6914Z" fill="#391313"/>
<path d="M74.9944 20.6914C76.4228 20.6914 77.5806 21.8492 77.5806 23.2775C77.5806 24.7059 76.4228 25.8637 74.9944 25.8637C73.5661 25.8637 72.4082 24.7059 72.4082 23.2775C72.4082 21.8492 73.5661 20.6914 74.9944 20.6914Z" fill="#391313"/>
<path d="M80.1722 20.6914C81.6005 20.6914 82.7584 21.8492 82.7584 23.2775C82.7584 24.7059 81.6005 25.8637 80.1722 25.8637C78.7438 25.8637 77.5859 24.7059 77.5859 23.2775C77.5859 21.8492 78.7438 20.6914 80.1722 20.6914Z" fill="#391313"/>
<path d="M95.6897 20.6914C97.1181 20.6914 98.2759 21.8492 98.2759 23.2775C98.2759 24.7059 97.1181 25.8637 95.6897 25.8637C94.2614 25.8637 93.1035 24.7059 93.1035 23.2775C93.1035 21.8492 94.2614 20.6914 95.6897 20.6914Z" fill="#391313"/>
<path d="M100.861 20.6914C102.289 20.6914 103.447 21.8492 103.447 23.2775C103.447 24.7059 102.289 25.8637 100.861 25.8637C99.4324 25.8637 98.2754 24.7059 98.2754 23.2775C98.2754 21.8492 99.4324 20.6914 100.861 20.6914Z" fill="#391313"/>
<path d="M59.4827 25.8613C60.9111 25.8613 62.0689 27.0192 62.0689 28.4475C62.0689 29.8758 60.9111 31.0337 59.4827 31.0337C58.0544 31.0337 56.8965 29.8758 56.8965 28.4475C56.8965 27.0192 58.0544 25.8613 59.4827 25.8613Z" fill="#391313"/>
<path d="M43.9651 31.0352C45.3935 31.0352 46.5514 32.1931 46.5514 33.6214C46.5514 35.0498 45.3935 36.2076 43.9651 36.2076C42.5368 36.2076 41.3789 35.0498 41.3789 33.6214C41.3789 32.1931 42.5368 31.0352 43.9651 31.0352Z" fill="#391313"/>
<path d="M54.3128 31.0352C55.7412 31.0352 56.8991 32.1931 56.8991 33.6214C56.8991 35.0498 55.7412 36.2076 54.3128 36.2076C52.8845 36.2076 51.7266 35.0498 51.7266 33.6214C51.7266 32.1931 52.8845 31.0352 54.3128 31.0352Z" fill="#391313"/>
<path d="M64.6546 31.0352C66.083 31.0352 67.2408 32.1931 67.2408 33.6214C67.2408 35.0497 66.083 36.2076 64.6546 36.2076C63.2263 36.2076 62.0684 35.0497 62.0684 33.6214C62.0684 32.1931 63.2263 31.0352 64.6546 31.0352Z" fill="#391313"/>
<path d="M74.9944 31.0352C76.4228 31.0352 77.5806 32.1931 77.5806 33.6214C77.5806 35.0498 76.4228 36.2076 74.9944 36.2076C73.5661 36.2076 72.4082 35.0498 72.4082 33.6214C72.4082 32.1931 73.5661 31.0352 74.9944 31.0352Z" fill="#391313"/>
<path d="M85.344 31.0352C86.7724 31.0352 87.9302 32.1931 87.9302 33.6214C87.9302 35.0498 86.7724 36.2076 85.344 36.2076C83.9157 36.2076 82.7578 35.0498 82.7578 33.6214C82.7578 32.1931 83.9157 31.0352 85.344 31.0352Z" fill="#391313"/>
<path d="M95.6917 31.0352C97.1201 31.0352 98.2779 32.1931 98.2779 33.6214C98.2779 35.0498 97.1201 36.2076 95.6917 36.2076C94.2634 36.2076 93.1055 35.0498 93.1055 33.6214C93.1055 32.1931 94.2634 31.0352 95.6917 31.0352Z" fill="#391313"/>
<path d="M106.03 31.0352C107.458 31.0352 108.616 32.1931 108.616 33.6214C108.616 35.0498 107.458 36.2076 106.03 36.2076C104.601 36.2076 103.443 35.0498 103.443 33.6214C103.443 32.1931 104.601 31.0352 106.03 31.0352Z" fill="#391313"/>
<path d="M49.135 36.207C50.5634 36.207 51.7212 37.3649 51.7212 38.7932C51.7212 40.2216 50.5634 41.3794 49.135 41.3794C47.7067 41.3794 46.5488 40.2216 46.5488 38.7932C46.5488 37.3649 47.7067 36.207 49.135 36.207Z" fill="#391313"/>
<path d="M64.6546 36.209C66.083 36.209 67.2408 37.3664 67.2408 38.7947C67.2408 40.2231 66.083 41.3809 64.6546 41.3809C63.2263 41.3809 62.0684 40.2231 62.0684 38.7947C62.0684 37.3664 63.2263 36.209 64.6546 36.209Z" fill="#391313"/>
<path d="M80.1722 36.207C81.6005 36.207 82.7584 37.3649 82.7584 38.7932C82.7584 40.2216 81.6005 41.3794 80.1722 41.3794C78.7438 41.3794 77.5859 40.2216 77.5859 38.7932C77.5859 37.3649 78.7438 36.207 80.1722 36.207Z" fill="#391313"/>
<path d="M90.5179 36.207C91.9462 36.207 93.1041 37.3648 93.1041 38.7931C93.1041 40.2215 91.9462 41.3793 90.5179 41.3793C89.0895 41.3793 87.9316 40.2215 87.9316 38.7931C87.9316 37.3648 89.0895 36.207 90.5179 36.207Z" fill="#391313"/>
<path d="M95.6917 36.207C97.1201 36.207 98.2779 37.3648 98.2779 38.7931C98.2779 40.2215 97.1201 41.3793 95.6917 41.3793C94.2634 41.3793 93.1055 40.2215 93.1055 38.7931C93.1055 37.3648 94.2634 36.207 95.6917 36.207Z" fill="#391313"/>
<path d="M100.862 36.207C102.29 36.207 103.448 37.3649 103.448 38.7932C103.448 40.2216 102.29 41.3794 100.862 41.3794C99.4333 41.3794 98.2754 40.2216 98.2754 38.7932C98.2754 37.3649 99.4333 36.207 100.862 36.207Z" fill="#391313"/>
<path d="M106.03 36.207C107.458 36.207 108.616 37.3648 108.616 38.7931C108.616 40.2215 107.458 41.3793 106.03 41.3793C104.601 41.3793 103.443 40.2215 103.443 38.7931C103.443 37.3648 104.601 36.207 106.03 36.207Z" fill="#391313"/>
<path d="M18.1018 41.377C19.5302 41.377 20.6881 42.5348 20.6881 43.9631C20.6881 45.3915 19.5302 46.5493 18.1018 46.5493C16.6735 46.5493 15.5156 45.3915 15.5156 43.9631C15.5156 42.5348 16.6735 41.377 18.1018 41.377Z" fill="#391313"/>
<path d="M23.2738 41.377C24.7021 41.377 25.86 42.5348 25.86 43.9631C25.86 45.3915 24.7021 46.5493 23.2738 46.5493C21.8454 46.5493 20.6875 45.3915 20.6875 43.9631C20.6875 42.5348 21.8454 41.377 23.2738 41.377Z" fill="#391313"/>
<path d="M33.6194 41.377C35.0478 41.377 36.2056 42.5348 36.2056 43.9631C36.2056 45.3915 35.0478 46.5493 33.6194 46.5493C32.1911 46.5493 31.0332 45.3915 31.0332 43.9631C31.0332 42.5348 32.1911 41.377 33.6194 41.377Z" fill="#391313"/>
<path d="M38.7933 41.377C40.2217 41.377 41.3795 42.5348 41.3795 43.9631C41.3795 45.3915 40.2217 46.5493 38.7933 46.5493C37.365 46.5493 36.207 45.3915 36.207 43.9631C36.207 42.5348 37.365 41.377 38.7933 41.377Z" fill="#391313"/>
<path d="M49.135 41.377C50.5634 41.377 51.7212 42.5348 51.7212 43.9631C51.7212 45.3915 50.5634 46.5493 49.135 46.5493C47.7067 46.5493 46.5488 45.3915 46.5488 43.9631C46.5488 42.5348 47.7067 41.377 49.135 41.377Z" fill="#391313"/>
<path d="M64.6546 41.377C66.083 41.377 67.2409 42.5348 67.2409 43.9631C67.2409 45.3915 66.083 46.5493 64.6546 46.5493C63.2263 46.5493 62.0684 45.3915 62.0684 43.9631C62.0684 42.5348 63.2263 41.377 64.6546 41.377Z" fill="#391313"/>
<path d="M69.8246 41.377C71.2529 41.377 72.4108 42.5348 72.4108 43.9631C72.4108 45.3915 71.2529 46.5493 69.8246 46.5493C68.3962 46.5493 67.2383 45.3915 67.2383 43.9631C67.2383 42.5348 68.3962 41.377 69.8246 41.377Z" fill="#391313"/>
<path d="M80.1722 41.377C81.6005 41.377 82.7584 42.5348 82.7584 43.9631C82.7584 45.3915 81.6005 46.5493 80.1722 46.5493C78.7438 46.5493 77.5859 45.3915 77.5859 43.9631C77.5859 42.5348 78.7438 41.377 80.1722 41.377Z" fill="#391313"/>
<path d="M100.862 41.377C102.29 41.377 103.448 42.5348 103.448 43.9631C103.448 45.3915 102.29 46.5493 100.862 46.5493C99.4333 46.5493 98.2754 45.3915 98.2754 43.9631C98.2754 42.5348 99.4333 41.377 100.862 41.377Z" fill="#391313"/>
<path d="M131.897 41.377C133.326 41.377 134.483 42.5348 134.483 43.9631C134.483 45.3915 133.326 46.5493 131.897 46.5493C130.469 46.5493 129.311 45.3915 129.311 43.9631C129.311 42.5348 130.469 41.377 131.897 41.377Z" fill="#391313"/>
<path d="M137.069 41.377C138.497 41.377 139.655 42.5348 139.655 43.9631C139.655 45.3915 138.497 46.5493 137.069 46.5493C135.64 46.5493 134.482 45.3915 134.482 43.9631C134.482 42.5348 135.64 41.377 137.069 41.377Z" fill="#391313"/>
<path d="M2.58622 46.5488C4.01461 46.5488 5.17244 47.7066 5.17244 49.1349C5.17244 50.5633 4.01461 51.7211 2.58622 51.7211C1.1579 51.7211 0 50.5633 0 49.1349C0 47.7066 1.1579 46.5488 2.58622 46.5488Z" fill="#391313"/>
<path d="M7.75817 46.5488C9.18656 46.5488 10.3444 47.7066 10.3444 49.1349C10.3444 50.5633 9.18656 51.7211 7.75817 51.7211C6.32986 51.7211 5.17188 50.5633 5.17188 49.1349C5.17188 47.7066 6.32986 46.5488 7.75817 46.5488Z" fill="#391313"/>
<path d="M18.1018 46.5488C19.5302 46.5488 20.6881 47.7066 20.6881 49.1349C20.6881 50.5633 19.5302 51.7211 18.1018 51.7211C16.6735 51.7211 15.5156 50.5633 15.5156 49.1349C15.5156 47.7066 16.6735 46.5488 18.1018 46.5488Z" fill="#391313"/>
<path d="M23.2738 46.5488C24.7021 46.5488 25.86 47.7066 25.86 49.1349C25.86 50.5633 24.7021 51.7211 23.2738 51.7211C21.8454 51.7211 20.6875 50.5633 20.6875 49.1349C20.6875 47.7066 21.8454 46.5488 23.2738 46.5488Z" fill="#391313"/>
<path d="M28.4475 46.5488C29.8759 46.5488 31.0337 47.7066 31.0337 49.1349C31.0337 50.5633 29.8759 51.7211 28.4475 51.7211C27.0192 51.7211 25.8613 50.5633 25.8613 49.1349C25.8613 47.7066 27.0192 46.5488 28.4475 46.5488Z" fill="#391313"/>
<path d="M59.4827 46.5488C60.9111 46.5488 62.0689 47.7066 62.0689 49.1349C62.0689 50.5633 60.9111 51.7211 59.4827 51.7211C58.0544 51.7211 56.8965 50.5633 56.8965 49.1349C56.8965 47.7066 58.0544 46.5488 59.4827 46.5488Z" fill="#391313"/>
<path d="M64.6547 46.5488C66.0831 46.5488 67.241 47.7066 67.241 49.1349C67.241 50.5633 66.0831 51.7211 64.6547 51.7211C63.2264 51.7211 62.0684 50.5633 62.0684 49.1349C62.0684 47.7066 63.2264 46.5488 64.6547 46.5488Z" fill="#391313"/>
<path d="M69.8246 46.5488C71.2529 46.5488 72.4108 47.7066 72.4108 49.1349C72.4108 50.5633 71.2529 51.7211 69.8246 51.7211C68.3962 51.7211 67.2383 50.5633 67.2383 49.1349C67.2383 47.7066 68.3962 46.5488 69.8246 46.5488Z" fill="#391313"/>
<path d="M85.344 46.5488C86.7724 46.5488 87.9302 47.7066 87.9302 49.1349C87.9302 50.5633 86.7724 51.7211 85.344 51.7211C83.9157 51.7211 82.7578 50.5633 82.7578 49.1349C82.7578 47.7066 83.9157 46.5488 85.344 46.5488Z" fill="#391313"/>
<path d="M90.5179 46.5488C91.9463 46.5488 93.1041 47.7066 93.1041 49.1349C93.1041 50.5633 91.9463 51.7211 90.5179 51.7211C89.0896 51.7211 87.9316 50.5633 87.9316 49.1349C87.9316 47.7066 89.0896 46.5488 90.5179 46.5488Z" fill="#391313"/>
<path d="M95.6917 46.5488C97.1201 46.5488 98.2779 47.7066 98.2779 49.1349C98.2779 50.5633 97.1201 51.7211 95.6917 51.7211C94.2634 51.7211 93.1055 50.5633 93.1055 49.1349C93.1055 47.7066 94.2634 46.5488 95.6917 46.5488Z" fill="#391313"/>
<path d="M100.862 46.5488C102.29 46.5488 103.448 47.7066 103.448 49.1349C103.448 50.5633 102.29 51.7211 100.862 51.7211C99.4333 51.7211 98.2754 50.5633 98.2754 49.1349C98.2754 47.7066 99.4333 46.5488 100.862 46.5488Z" fill="#391313"/>
<path d="M111.203 46.5488C112.632 46.5488 113.789 47.7066 113.789 49.1349C113.789 50.5633 112.632 51.7211 111.203 51.7211C109.775 51.7211 108.617 50.5633 108.617 49.1349C108.617 47.7066 109.775 46.5488 111.203 46.5488Z" fill="#391313"/>
<path d="M121.555 46.5488C122.983 46.5488 124.141 47.7066 124.141 49.1349C124.141 50.5633 122.983 51.7211 121.555 51.7211C120.127 51.7211 118.969 50.5633 118.969 49.1349C118.969 47.7066 120.127 46.5488 121.555 46.5488Z" fill="#391313"/>
<path d="M126.724 46.5488C128.152 46.5488 129.31 47.7066 129.31 49.1349C129.31 50.5633 128.152 51.7211 126.724 51.7211C125.295 51.7211 124.137 50.5633 124.137 49.1349C124.137 47.7066 125.295 46.5488 126.724 46.5488Z" fill="#391313"/>
<path d="M142.24 46.5488C143.669 46.5488 144.826 47.7066 144.826 49.1349C144.826 50.5633 143.669 51.7211 142.24 51.7211C140.812 51.7211 139.654 50.5633 139.654 49.1349C139.654 47.7066 140.812 46.5488 142.24 46.5488Z" fill="#391313"/>
<path d="M2.58622 51.7246C4.01461 51.7246 5.17244 52.8825 5.17244 54.3108C5.17244 55.7391 4.01461 56.897 2.58622 56.897C1.1579 56.897 0 55.7391 0 54.3108C0 52.8825 1.1579 51.7246 2.58622 51.7246Z" fill="#391313"/>
<path d="M7.7583 51.7246C9.18669 51.7246 10.3445 52.8825 10.3445 54.3108C10.3445 55.7391 9.18669 56.8969 7.7583 56.8969C6.32998 56.8969 5.17188 55.7391 5.17188 54.3108C5.17188 52.8825 6.32998 51.7246 7.7583 51.7246Z" fill="#391313"/>
<path d="M18.1018 51.7246C19.5302 51.7246 20.6881 52.8825 20.6881 54.3108C20.6881 55.7391 19.5302 56.897 18.1018 56.897C16.6735 56.897 15.5156 55.7391 15.5156 54.3108C15.5156 52.8825 16.6735 51.7246 18.1018 51.7246Z" fill="#391313"/>
<path d="M23.2739 51.7246C24.7023 51.7246 25.8601 52.8825 25.8601 54.3108C25.8601 55.7391 24.7023 56.8969 23.2739 56.8969C21.8456 56.8969 20.6875 55.7391 20.6875 54.3108C20.6875 52.8825 21.8456 51.7246 23.2739 51.7246Z" fill="#391313"/>
<path d="M28.4475 51.7246C29.8759 51.7246 31.0337 52.8825 31.0337 54.3108C31.0337 55.7391 29.8759 56.8969 28.4475 56.8969C27.0192 56.8969 25.8613 55.7391 25.8613 54.3108C25.8613 52.8825 27.0192 51.7246 28.4475 51.7246Z" fill="#391313"/>
<path d="M33.6194 51.7246C35.0478 51.7246 36.2056 52.8825 36.2056 54.3108C36.2056 55.7391 35.0478 56.897 33.6194 56.897C32.1911 56.897 31.0332 55.7391 31.0332 54.3108C31.0332 52.8825 32.1911 51.7246 33.6194 51.7246Z" fill="#391313"/>
<path d="M49.135 51.7246C50.5634 51.7246 51.7212 52.8825 51.7212 54.3108C51.7212 55.7391 50.5634 56.897 49.135 56.897C47.7067 56.897 46.5488 55.7391 46.5488 54.3108C46.5488 52.8825 47.7067 51.7246 49.135 51.7246Z" fill="#391313"/>
<path d="M111.203 51.7246C112.632 51.7246 113.789 52.8825 113.789 54.3108C113.789 55.7391 112.632 56.897 111.203 56.897C109.775 56.897 108.617 55.7391 108.617 54.3108C108.617 52.8825 109.775 51.7246 111.203 51.7246Z" fill="#391313"/>
<path d="M116.38 51.7246C117.808 51.7246 118.966 52.8825 118.966 54.3108C118.966 55.7391 117.808 56.897 116.38 56.897C114.951 56.897 113.793 55.7391 113.793 54.3108C113.793 52.8825 114.951 51.7246 116.38 51.7246Z" fill="#391313"/>
<path d="M121.555 51.7246C122.983 51.7246 124.141 52.8825 124.141 54.3108C124.141 55.7391 122.983 56.897 121.555 56.897C120.127 56.897 118.969 55.7391 118.969 54.3108C118.969 52.8825 120.127 51.7246 121.555 51.7246Z" fill="#391313"/>
<path d="M131.897 51.7246C133.326 51.7246 134.483 52.8825 134.483 54.3108C134.483 55.7391 133.326 56.8969 131.897 56.8969C130.469 56.8969 129.311 55.7391 129.311 54.3108C129.311 52.8825 130.469 51.7246 131.897 51.7246Z" fill="#391313"/>
<path d="M137.069 51.7246C138.497 51.7246 139.655 52.8825 139.655 54.3108C139.655 55.7391 138.497 56.897 137.069 56.897C135.64 56.897 134.482 55.7391 134.482 54.3108C134.482 52.8825 135.64 51.7246 137.069 51.7246Z" fill="#391313"/>
<path d="M2.58622 56.8945C4.01461 56.8945 5.17244 58.0524 5.17244 59.4807C5.17244 60.9091 4.01461 62.0669 2.58622 62.0669C1.1579 62.0669 0 60.9091 0 59.4807C0 58.0524 1.1579 56.8945 2.58622 56.8945Z" fill="#391313"/>
<path d="M7.75817 56.8945C9.18656 56.8945 10.3444 58.0524 10.3444 59.4807C10.3444 60.9091 9.18656 62.0669 7.75817 62.0669C6.32986 62.0669 5.17188 60.9091 5.17188 59.4807C5.17188 58.0524 6.32986 56.8945 7.75817 56.8945Z" fill="#391313"/>
<path d="M18.1018 56.8945C19.5302 56.8945 20.6881 58.0524 20.6881 59.4807C20.6881 60.9091 19.5302 62.0669 18.1018 62.0669C16.6735 62.0669 15.5156 60.9091 15.5156 59.4807C15.5156 58.0524 16.6735 56.8945 18.1018 56.8945Z" fill="#391313"/>
<path d="M23.2738 56.8945C24.7021 56.8945 25.86 58.0524 25.86 59.4807C25.86 60.9091 24.7021 62.0669 23.2738 62.0669C21.8454 62.0669 20.6875 60.9091 20.6875 59.4807C20.6875 58.0524 21.8454 56.8945 23.2738 56.8945Z" fill="#391313"/>
<path d="M38.7932 56.8945C40.2216 56.8945 41.3794 58.0524 41.3794 59.4807C41.3794 60.9091 40.2216 62.0669 38.7932 62.0669C37.3649 62.0669 36.207 60.9091 36.207 59.4807C36.207 58.0524 37.3649 56.8945 38.7932 56.8945Z" fill="#391313"/>
<path d="M100.862 56.8945C102.29 56.8945 103.448 58.0524 103.448 59.4807C103.448 60.9091 102.29 62.0669 100.862 62.0669C99.4333 62.0669 98.2754 60.9091 98.2754 59.4807C98.2754 58.0524 99.4333 56.8945 100.862 56.8945Z" fill="#391313"/>
<path d="M106.03 56.8945C107.458 56.8945 108.616 58.0524 108.616 59.4807C108.616 60.9091 107.458 62.0669 106.03 62.0669C104.601 62.0669 103.443 60.9091 103.443 59.4807C103.443 58.0524 104.601 56.8945 106.03 56.8945Z" fill="#391313"/>
<path d="M121.555 56.8945C122.983 56.8945 124.141 58.0524 124.141 59.4807C124.141 60.9091 122.983 62.0669 121.555 62.0669C120.127 62.0669 118.969 60.9091 118.969 59.4807C118.969 58.0524 120.127 56.8945 121.555 56.8945Z" fill="#391313"/>
<path d="M126.724 56.8945C128.152 56.8945 129.31 58.0524 129.31 59.4807C129.31 60.9091 128.152 62.0669 126.724 62.0669C125.295 62.0669 124.137 60.9091 124.137 59.4807C124.137 58.0524 125.295 56.8945 126.724 56.8945Z" fill="#391313"/>
<path d="M131.897 56.8945C133.326 56.8945 134.483 58.0524 134.483 59.4807C134.483 60.9091 133.326 62.0669 131.897 62.0669C130.469 62.0669 129.311 60.9091 129.311 59.4807C129.311 58.0524 130.469 56.8945 131.897 56.8945Z" fill="#391313"/>
<path d="M147.413 56.8945C148.841 56.8945 149.999 58.0524 149.999 59.4807C149.999 60.9091 148.841 62.0669 147.413 62.0669C145.984 62.0669 144.826 60.9091 144.826 59.4807C144.826 58.0524 145.984 56.8945 147.413 56.8945Z" fill="#391313"/>
<path d="M2.58622 62.0664C4.01461 62.0664 5.17244 63.2242 5.17244 64.6525C5.17244 66.0809 4.01461 67.2387 2.58622 67.2387C1.1579 67.2387 0 66.0809 0 64.6525C0 63.2242 1.1579 62.0664 2.58622 62.0664Z" fill="#391313"/>
<path d="M7.75817 62.0664C9.18656 62.0664 10.3442 63.2244 10.3442 64.6527C10.3442 66.081 9.18644 67.2389 7.75805 67.2389C6.32973 67.2389 5.17188 66.0809 5.17188 64.6525C5.17188 63.2242 6.32986 62.0664 7.75817 62.0664Z" fill="#391313"/>
<path d="M18.1018 62.0664C19.5302 62.0664 20.6881 63.2242 20.6881 64.6525C20.6881 66.0809 19.5302 67.2387 18.1018 67.2387C16.6735 67.2387 15.5156 66.0809 15.5156 64.6525C15.5156 63.2242 16.6735 62.0664 18.1018 62.0664Z" fill="#391313"/>
<path d="M33.6194 62.0664C35.0478 62.0664 36.2056 63.2243 36.2056 64.6526C36.2056 66.081 35.0478 67.2388 33.6194 67.2388C32.1911 67.2388 31.0332 66.081 31.0332 64.6526C31.0332 63.2243 32.1911 62.0664 33.6194 62.0664Z" fill="#391313"/>
<path d="M43.9651 62.0664C45.3935 62.0664 46.5514 63.2243 46.5514 64.6526C46.5514 66.081 45.3935 67.2388 43.9651 67.2388C42.5368 67.2388 41.3789 66.081 41.3789 64.6526C41.3789 63.2243 42.5368 62.0664 43.9651 62.0664Z" fill="#391313"/>
<path d="M111.203 62.0664C112.632 62.0664 113.789 63.2243 113.789 64.6526C113.789 66.081 112.632 67.2388 111.203 67.2388C109.775 67.2388 108.617 66.081 108.617 64.6526C108.617 63.2243 109.775 62.0664 111.203 62.0664Z" fill="#391313"/>
<path d="M116.38 62.0664C117.808 62.0664 118.966 63.2243 118.966 64.6526C118.966 66.081 117.808 67.2388 116.38 67.2388C114.951 67.2388 113.793 66.081 113.793 64.6526C113.793 63.2243 114.951 62.0664 116.38 62.0664Z" fill="#391313"/>
<path d="M131.897 62.0664C133.326 62.0664 134.483 63.2244 134.483 64.6527C134.483 66.081 133.326 67.2389 131.897 67.2389C130.469 67.2389 129.311 66.081 129.311 64.6527C129.311 63.2244 130.469 62.0664 131.897 62.0664Z" fill="#391313"/>
<path d="M142.24 62.0664C143.669 62.0664 144.826 63.2243 144.826 64.6526C144.826 66.081 143.669 67.2388 142.24 67.2388C140.812 67.2388 139.654 66.081 139.654 64.6526C139.654 63.2243 140.812 62.0664 142.24 62.0664Z" fill="#391313"/>
<path d="M43.9651 67.2383C45.3935 67.2383 46.5514 68.3961 46.5514 69.8244C46.5514 71.2528 45.3935 72.4106 43.9651 72.4106C42.5368 72.4106 41.3789 71.2528 41.3789 69.8244C41.3789 68.3961 42.5368 67.2383 43.9651 67.2383Z" fill="#391313"/>
<path d="M49.135 67.2383C50.5634 67.2383 51.7212 68.3962 51.7212 69.8245C51.7212 71.2529 50.5634 72.4107 49.135 72.4107C47.7067 72.4107 46.5488 71.2529 46.5488 69.8245C46.5488 68.3962 47.7067 67.2383 49.135 67.2383Z" fill="#391313"/>
<path d="M116.38 67.2383C117.808 67.2383 118.966 68.3961 118.966 69.8244C118.966 71.2528 117.808 72.4106 116.38 72.4106C114.951 72.4106 113.793 71.2528 113.793 69.8244C113.793 68.3961 114.951 67.2383 116.38 67.2383Z" fill="#391313"/>
<path d="M126.724 67.2383C128.152 67.2383 129.31 68.3962 129.31 69.8245C129.31 71.2529 128.152 72.4107 126.724 72.4107C125.295 72.4107 124.137 71.2529 124.137 69.8245C124.137 68.3962 125.295 67.2383 126.724 67.2383Z" fill="#391313"/>
<path d="M137.069 67.2383C138.497 67.2383 139.655 68.3962 139.655 69.8245C139.655 71.2529 138.497 72.4107 137.069 72.4107C135.64 72.4107 134.482 71.2529 134.482 69.8245C134.482 68.3962 135.64 67.2383 137.069 67.2383Z" fill="#391313"/>
<path d="M142.239 67.2383C143.668 67.2383 144.825 68.3961 144.825 69.8244C144.825 71.2528 143.668 72.4106 142.239 72.4106C140.811 72.4106 139.654 71.2528 139.654 69.8244C139.654 68.3961 140.811 67.2383 142.239 67.2383Z" fill="#391313"/>
<path d="M147.413 67.2383C148.841 67.2383 149.999 68.3962 149.999 69.8245C149.999 71.2529 148.841 72.4107 147.413 72.4107C145.984 72.4107 144.826 71.2529 144.826 69.8245C144.826 68.3962 145.984 67.2383 147.413 67.2383Z" fill="#391313"/>
<path d="M7.75809 72.4102C9.18648 72.4102 10.3444 73.5681 10.3444 74.9964C10.3444 76.4248 9.18648 77.5826 7.75809 77.5826C6.32978 77.5826 5.17188 76.4248 5.17188 74.9964C5.17188 73.5681 6.32978 72.4102 7.75809 72.4102Z" fill="#391313"/>
<path d="M18.1018 72.4102C19.5302 72.4102 20.6881 73.5681 20.6881 74.9964C20.6881 76.4248 19.5302 77.5826 18.1018 77.5826C16.6735 77.5826 15.5156 76.4248 15.5156 74.9964C15.5156 73.5681 16.6735 72.4102 18.1018 72.4102Z" fill="#391313"/>
<path d="M23.2738 72.4102C24.7021 72.4102 25.86 73.5681 25.86 74.9964C25.86 76.4248 24.7021 77.5826 23.2738 77.5826C21.8454 77.5826 20.6875 76.4248 20.6875 74.9964C20.6875 73.5681 21.8454 72.4102 23.2738 72.4102Z" fill="#391313"/>
<path d="M28.4475 72.4102C29.8759 72.4102 31.0337 73.5681 31.0337 74.9964C31.0337 76.4248 29.8759 77.5826 28.4475 77.5826C27.0192 77.5826 25.8613 76.4248 25.8613 74.9964C25.8613 73.5681 27.0192 72.4102 28.4475 72.4102Z" fill="#391313"/>
<path d="M33.6195 72.4102C35.0479 72.4102 36.2057 73.5681 36.2057 74.9964C36.2057 76.4248 35.0479 77.5826 33.6195 77.5826C32.1912 77.5826 31.0332 76.4248 31.0332 74.9964C31.0332 73.5681 32.1912 72.4102 33.6195 72.4102Z" fill="#391313"/>
<path d="M100.862 72.4102C102.29 72.4102 103.448 73.5681 103.448 74.9964C103.448 76.4248 102.29 77.5826 100.862 77.5826C99.4333 77.5826 98.2754 76.4248 98.2754 74.9964C98.2754 73.5681 99.4333 72.4102 100.862 72.4102Z" fill="#391313"/>
<path d="M111.203 72.4102C112.632 72.4102 113.789 73.5681 113.789 74.9964C113.789 76.4248 112.632 77.5826 111.203 77.5826C109.775 77.5826 108.617 76.4248 108.617 74.9964C108.617 73.5681 109.775 72.4102 111.203 72.4102Z" fill="#391313"/>
<path d="M116.38 72.4102C117.808 72.4102 118.966 73.568 118.966 74.9963C118.966 76.4247 117.808 77.5825 116.38 77.5825C114.951 77.5825 113.793 76.4247 113.793 74.9963C113.793 73.568 114.951 72.4102 116.38 72.4102Z" fill="#391313"/>
<path d="M121.555 72.4102C122.983 72.4102 124.141 73.5681 124.141 74.9964C124.141 76.4248 122.983 77.5826 121.555 77.5826C120.127 77.5826 118.969 76.4248 118.969 74.9964C118.969 73.5681 120.127 72.4102 121.555 72.4102Z" fill="#391313"/>
<path d="M131.897 72.4102C133.326 72.4102 134.483 73.5681 134.483 74.9964C134.483 76.4248 133.326 77.5826 131.897 77.5826C130.469 77.5826 129.311 76.4248 129.311 74.9964C129.311 73.5681 130.469 72.4102 131.897 72.4102Z" fill="#391313"/>
<path d="M147.413 72.4102C148.841 72.4102 149.999 73.568 149.999 74.9963C149.999 76.4247 148.841 77.5825 147.413 77.5825C145.984 77.5825 144.826 76.4247 144.826 74.9963C144.826 73.568 145.984 72.4102 147.413 72.4102Z" fill="#391313"/>
<path d="M2.58622 77.5859C4.01461 77.5859 5.17244 78.7438 5.17244 80.1721C5.17244 81.6004 4.01461 82.7583 2.58622 82.7583C1.1579 82.7583 0 81.6004 0 80.1721C0 78.7438 1.1579 77.5859 2.58622 77.5859Z" fill="#391313"/>
<path d="M12.932 77.5859C14.3604 77.5859 15.5182 78.7438 15.5182 80.1721C15.5182 81.6005 14.3604 82.7583 12.932 82.7583C11.5036 82.7583 10.3457 81.6005 10.3457 80.1721C10.3457 78.7438 11.5036 77.5859 12.932 77.5859Z" fill="#391313"/>
<path d="M18.1018 77.5859C19.5302 77.5859 20.6881 78.7438 20.6881 80.1721C20.6881 81.6005 19.5302 82.7583 18.1018 82.7583C16.6735 82.7583 15.5156 81.6005 15.5156 80.1721C15.5156 78.7438 16.6735 77.5859 18.1018 77.5859Z" fill="#391313"/>
<path d="M28.4475 77.5859C29.8759 77.5859 31.0337 78.7438 31.0337 80.1721C31.0337 81.6004 29.8759 82.7582 28.4475 82.7582C27.0192 82.7582 25.8613 81.6004 25.8613 80.1721C25.8613 78.7438 27.0192 77.5859 28.4475 77.5859Z" fill="#391313"/>
<path d="M38.7932 77.5859C40.2216 77.5859 41.3794 78.7438 41.3794 80.1721C41.3794 81.6005 40.2216 82.7583 38.7932 82.7583C37.3649 82.7583 36.207 81.6005 36.207 80.1721C36.207 78.7438 37.3649 77.5859 38.7932 77.5859Z" fill="#391313"/>
<path d="M49.135 77.5859C50.5634 77.5859 51.7213 78.7438 51.7213 80.1721C51.7213 81.6004 50.5634 82.7583 49.135 82.7583C47.7067 82.7583 46.5488 81.6004 46.5488 80.1721C46.5488 78.7438 47.7067 77.5859 49.135 77.5859Z" fill="#391313"/>
<path d="M111.203 77.5859C112.632 77.5859 113.789 78.7438 113.789 80.1721C113.789 81.6005 112.632 82.7583 111.203 82.7583C109.775 82.7583 108.617 81.6005 108.617 80.1721C108.617 78.7438 109.775 77.5859 111.203 77.5859Z" fill="#391313"/>
<path d="M126.724 77.5859C128.152 77.5859 129.31 78.7438 129.31 80.1721C129.31 81.6005 128.152 82.7583 126.724 82.7583C125.295 82.7583 124.137 81.6005 124.137 80.1721C124.137 78.7438 125.295 77.5859 126.724 77.5859Z" fill="#391313"/>
<path d="M131.897 77.5859C133.326 77.5859 134.484 78.7438 134.484 80.1721C134.484 81.6004 133.326 82.7583 131.897 82.7583C130.469 82.7583 129.311 81.6005 129.311 80.1721C129.311 78.7438 130.469 77.5859 131.897 77.5859Z" fill="#391313"/>
<path d="M137.068 77.5859C138.496 77.5859 139.654 78.7438 139.654 80.1721C139.654 81.6004 138.496 82.7583 137.068 82.7583C135.639 82.7583 134.482 81.6004 134.482 80.1721C134.482 78.7438 135.639 77.5859 137.068 77.5859Z" fill="#391313"/>
<path d="M142.239 77.5859C143.668 77.5859 144.825 78.7438 144.825 80.1721C144.825 81.6005 143.668 82.7583 142.239 82.7583C140.811 82.7583 139.654 81.6004 139.654 80.1721C139.654 78.7438 140.811 77.5859 142.239 77.5859Z" fill="#391313"/>
<path d="M7.7581 82.7578C9.18649 82.7578 10.3443 83.9157 10.3443 85.344C10.3443 86.7724 9.18649 87.9302 7.7581 87.9302C6.32978 87.9302 5.17188 86.7724 5.17188 85.344C5.17188 83.9157 6.32978 82.7578 7.7581 82.7578Z" fill="#391313"/>
<path d="M18.1018 82.7578C19.5302 82.7578 20.6881 83.9156 20.6881 85.3439C20.6881 86.7723 19.5302 87.9301 18.1018 87.9301C16.6735 87.9301 15.5156 86.7723 15.5156 85.3439C15.5156 83.9156 16.6735 82.7578 18.1018 82.7578Z" fill="#391313"/>
<path d="M28.4475 82.7578C29.8759 82.7578 31.0337 83.9157 31.0337 85.344C31.0337 86.7724 29.8759 87.9302 28.4475 87.9302C27.0192 87.9302 25.8613 86.7724 25.8613 85.344C25.8613 83.9157 27.0192 82.7578 28.4475 82.7578Z" fill="#391313"/>
<path d="M33.6194 82.7578C35.0478 82.7578 36.2056 83.9157 36.2056 85.344C36.2056 86.7724 35.0478 87.9302 33.6194 87.9302C32.1911 87.9302 31.0332 86.7723 31.0332 85.3439C31.0332 83.9156 32.1911 82.7578 33.6194 82.7578Z" fill="#391313"/>
<path d="M38.7933 82.7578C40.2217 82.7578 41.3795 83.9156 41.3795 85.3439C41.3795 86.7723 40.2217 87.9301 38.7933 87.9301C37.365 87.9301 36.207 86.7723 36.207 85.3439C36.207 83.9156 37.365 82.7578 38.7933 82.7578Z" fill="#391313"/>
<path d="M43.9652 82.7578C45.3936 82.7578 46.5515 83.9157 46.5515 85.344C46.5515 86.7724 45.3936 87.9302 43.9652 87.9302C42.5369 87.9302 41.3789 86.7724 41.3789 85.344C41.3789 83.9157 42.5369 82.7578 43.9652 82.7578Z" fill="#391313"/>
<path d="M49.1351 82.7578C50.5635 82.7578 51.7212 83.9156 51.7212 85.3439C51.7212 86.7723 50.5634 87.9301 49.135 87.9301C47.7067 87.9301 46.5488 86.7723 46.5488 85.3439C46.5488 83.9156 47.7068 82.7578 49.1351 82.7578Z" fill="#391313"/>
<path d="M100.862 82.7578C102.29 82.7578 103.448 83.9157 103.448 85.344C103.448 86.7724 102.29 87.9302 100.862 87.9302C99.4333 87.9302 98.2754 86.7724 98.2754 85.344C98.2754 83.9157 99.4333 82.7578 100.862 82.7578Z" fill="#391313"/>
<path d="M106.03 82.7578C107.458 82.7578 108.616 83.9157 108.616 85.344C108.616 86.7724 107.458 87.9302 106.03 87.9302C104.601 87.9302 103.443 86.7724 103.443 85.344C103.443 83.9157 104.601 82.7578 106.03 82.7578Z" fill="#391313"/>
<path d="M111.203 82.7578C112.632 82.7578 113.789 83.9156 113.789 85.3439C113.789 86.7723 112.632 87.9301 111.203 87.9301C109.775 87.9301 108.617 86.7723 108.617 85.3439C108.617 83.9156 109.775 82.7578 111.203 82.7578Z" fill="#391313"/>
<path d="M121.555 82.7578C122.983 82.7578 124.141 83.9157 124.141 85.344C124.141 86.7724 122.983 87.9302 121.555 87.9302C120.127 87.9302 118.969 86.7724 118.969 85.344C118.969 83.9157 120.127 82.7578 121.555 82.7578Z" fill="#391313"/>
<path d="M131.897 82.7578C133.326 82.7578 134.483 83.9155 134.483 85.3438C134.483 86.7722 133.326 87.93 131.897 87.93C130.469 87.93 129.311 86.7722 129.311 85.3438C129.311 83.9155 130.469 82.7578 131.897 82.7578Z" fill="#391313"/>
<path d="M142.24 82.7578C143.669 82.7578 144.826 83.9156 144.826 85.3439C144.826 86.7723 143.669 87.9301 142.24 87.9301C140.812 87.9301 139.654 86.7723 139.654 85.3439C139.654 83.9156 140.812 82.7578 142.24 82.7578Z" fill="#391313"/>
<path d="M147.413 82.7578C148.841 82.7578 149.999 83.9157 149.999 85.344C149.999 86.7724 148.841 87.9302 147.413 87.9302C145.984 87.9302 144.826 86.7724 144.826 85.344C144.826 83.9157 145.984 82.7578 147.413 82.7578Z" fill="#391313"/>
<path d="M2.58622 87.9277C4.01461 87.9277 5.17244 89.0856 5.17244 90.5139C5.17244 91.9423 4.01461 93.1001 2.58622 93.1001C1.1579 93.1001 0 91.9423 0 90.5139C0 89.0856 1.1579 87.9277 2.58622 87.9277Z" fill="#391313"/>
<path d="M7.75817 87.9277C9.18656 87.9277 10.3444 89.0856 10.3444 90.5139C10.3444 91.9423 9.18656 93.1001 7.75817 93.1001C6.32986 93.1001 5.17188 91.9423 5.17188 90.5139C5.17188 89.0856 6.32986 87.9277 7.75817 87.9277Z" fill="#391313"/>
<path d="M12.932 87.9277C14.3604 87.9277 15.5182 89.0856 15.5182 90.5139C15.5182 91.9423 14.3604 93.1001 12.932 93.1001C11.5036 93.1001 10.3457 91.9423 10.3457 90.5139C10.3457 89.0856 11.5036 87.9277 12.932 87.9277Z" fill="#391313"/>
<path d="M18.1018 87.9277C19.5302 87.9277 20.6881 89.0856 20.6881 90.5139C20.6881 91.9423 19.5302 93.1001 18.1018 93.1001C16.6735 93.1001 15.5156 91.9423 15.5156 90.5139C15.5156 89.0856 16.6735 87.9277 18.1018 87.9277Z" fill="#391313"/>
<path d="M28.4475 87.9277C29.8759 87.9277 31.0337 89.0856 31.0337 90.5139C31.0337 91.9423 29.8759 93.1001 28.4475 93.1001C27.0192 93.1001 25.8613 91.9423 25.8613 90.5139C25.8613 89.0856 27.0192 87.9277 28.4475 87.9277Z" fill="#391313"/>
<path d="M38.7932 87.9277C40.2216 87.9277 41.3794 89.0856 41.3794 90.5139C41.3794 91.9423 40.2216 93.1001 38.7932 93.1001C37.3649 93.1001 36.207 91.9423 36.207 90.5139C36.207 89.0856 37.3649 87.9277 38.7932 87.9277Z" fill="#391313"/>
<path d="M43.9652 87.9277C45.3936 87.9277 46.5515 89.0856 46.5515 90.5139C46.5515 91.9423 45.3936 93.1001 43.9652 93.1001C42.5369 93.1001 41.3789 91.9423 41.3789 90.5139C41.3789 89.0856 42.5369 87.9277 43.9652 87.9277Z" fill="#391313"/>
<path d="M100.862 87.9277C102.29 87.9277 103.448 89.0856 103.448 90.5139C103.448 91.9423 102.29 93.1001 100.862 93.1001C99.4333 93.1001 98.2754 91.9423 98.2754 90.5139C98.2754 89.0856 99.4333 87.9277 100.862 87.9277Z" fill="#391313"/>
<path d="M106.03 87.9277C107.458 87.9277 108.616 89.0856 108.616 90.5139C108.616 91.9423 107.458 93.1001 106.03 93.1001C104.601 93.1001 103.443 91.9423 103.443 90.5139C103.443 89.0856 104.601 87.9277 106.03 87.9277Z" fill="#391313"/>
<path d="M126.724 87.9277C128.152 87.9277 129.31 89.0856 129.31 90.5139C129.31 91.9423 128.152 93.1001 126.724 93.1001C125.295 93.1001 124.137 91.9423 124.137 90.5139C124.137 89.0856 125.295 87.9277 126.724 87.9277Z" fill="#391313"/>
<path d="M131.897 87.9277C133.326 87.9277 134.483 89.0856 134.483 90.5139C134.483 91.9423 133.326 93.1001 131.897 93.1001C130.469 93.1001 129.311 91.9423 129.311 90.5139C129.311 89.0856 130.469 87.9277 131.897 87.9277Z" fill="#391313"/>
<path d="M2.58622 93.1016C4.01461 93.1016 5.17244 94.2594 5.17244 95.6877C5.17244 97.1161 4.01461 98.2739 2.58622 98.2739C1.1579 98.2739 0 97.1161 0 95.6877C0 94.2594 1.1579 93.1016 2.58622 93.1016Z" fill="#391313"/>
<path d="M7.75817 93.1016C9.18656 93.1016 10.3444 94.2594 10.3444 95.6877C10.3444 97.1161 9.18656 98.2739 7.75817 98.2739C6.32986 98.2739 5.17188 97.1161 5.17188 95.6877C5.17188 94.2594 6.32986 93.1016 7.75817 93.1016Z" fill="#391313"/>
<path d="M18.1018 93.1016C19.5302 93.1016 20.6881 94.2594 20.6881 95.6877C20.6881 97.1161 19.5302 98.2739 18.1018 98.2739C16.6735 98.2739 15.5156 97.1161 15.5156 95.6877C15.5156 94.2594 16.6735 93.1016 18.1018 93.1016Z" fill="#391313"/>
<path d="M28.4475 93.1016C29.8759 93.1016 31.0337 94.2594 31.0337 95.6877C31.0337 97.1161 29.8759 98.2739 28.4475 98.2739C27.0192 98.2739 25.8613 97.1161 25.8613 95.6877C25.8613 94.2594 27.0192 93.1016 28.4475 93.1016Z" fill="#391313"/>
<path d="M33.6195 93.1016C35.0479 93.1016 36.2057 94.2594 36.2057 95.6877C36.2057 97.1161 35.0479 98.2739 33.6195 98.2739C32.1912 98.2739 31.0332 97.1161 31.0332 95.6877C31.0332 94.2594 32.1912 93.1016 33.6195 93.1016Z" fill="#391313"/>
<path d="M38.7933 93.1016C40.2217 93.1016 41.3795 94.2594 41.3795 95.6877C41.3795 97.1161 40.2217 98.2739 38.7933 98.2739C37.365 98.2739 36.207 97.1161 36.207 95.6877C36.207 94.2594 37.365 93.1016 38.7933 93.1016Z" fill="#391313"/>
<path d="M100.862 93.1016C102.29 93.1016 103.448 94.2594 103.448 95.6877C103.448 97.1161 102.29 98.2739 100.862 98.2739C99.4333 98.2739 98.2754 97.1161 98.2754 95.6877C98.2754 94.2594 99.4333 93.1016 100.862 93.1016Z" fill="#391313"/>
<path d="M126.724 93.1016C128.152 93.1016 129.31 94.2594 129.31 95.6877C129.31 97.1161 128.152 98.2739 126.724 98.2739C125.295 98.2739 124.137 97.1161 124.137 95.6877C124.137 94.2594 125.295 93.1016 126.724 93.1016Z" fill="#391313"/>
<path d="M131.897 93.1016C133.326 93.1016 134.483 94.2594 134.483 95.6877C134.483 97.1161 133.326 98.2739 131.897 98.2739C130.469 98.2739 129.311 97.1161 129.311 95.6877C129.311 94.2594 130.469 93.1016 131.897 93.1016Z" fill="#391313"/>
<path d="M137.069 93.1016C138.497 93.1016 139.655 94.2594 139.655 95.6877C139.655 97.1161 138.497 98.2739 137.069 98.2739C135.64 98.2739 134.482 97.1161 134.482 95.6877C134.482 94.2594 135.64 93.1016 137.069 93.1016Z" fill="#391313"/>
<path d="M147.413 93.1016C148.841 93.1016 149.999 94.2594 149.999 95.6877C149.999 97.1161 148.841 98.2739 147.413 98.2739C145.984 98.2739 144.826 97.1161 144.826 95.6877C144.826 94.2594 145.984 93.1016 147.413 93.1016Z" fill="#391313"/>
<path d="M2.58622 98.2734C4.01461 98.2734 5.17244 99.4312 5.17244 100.859C5.17244 102.288 4.01461 103.446 2.58622 103.446C1.1579 103.446 0 102.288 0 100.859C0 99.4312 1.1579 98.2734 2.58622 98.2734Z" fill="#391313"/>
<path d="M7.75817 98.2734C9.18656 98.2734 10.3444 99.4312 10.3444 100.859C10.3444 102.288 9.18656 103.446 7.75817 103.446C6.32986 103.446 5.17188 102.288 5.17188 100.859C5.17188 99.4312 6.32986 98.2734 7.75817 98.2734Z" fill="#391313"/>
<path d="M12.932 98.2734C14.3604 98.2734 15.5182 99.4313 15.5182 100.859C15.5182 102.288 14.3604 103.446 12.932 103.446C11.5036 103.446 10.3457 102.288 10.3457 100.859C10.3457 99.4313 11.5036 98.2734 12.932 98.2734Z" fill="#391313"/>
<path d="M18.1018 98.2734C19.5302 98.2734 20.6881 99.4312 20.6881 100.859C20.6881 102.288 19.5302 103.446 18.1018 103.446C16.6735 103.446 15.5156 102.288 15.5156 100.859C15.5156 99.4312 16.6735 98.2734 18.1018 98.2734Z" fill="#391313"/>
<path d="M28.4475 98.2734C29.8759 98.2734 31.0337 99.4312 31.0337 100.859C31.0337 102.288 29.8759 103.446 28.4475 103.446C27.0192 103.446 25.8613 102.288 25.8613 100.859C25.8613 99.4312 27.0192 98.2734 28.4475 98.2734Z" fill="#391313"/>
<path d="M43.9651 98.2734C45.3935 98.2734 46.5514 99.4313 46.5514 100.859C46.5514 102.288 45.3935 103.446 43.9651 103.446C42.5368 103.446 41.3789 102.288 41.3789 100.859C41.3789 99.4313 42.5368 98.2734 43.9651 98.2734Z" fill="#391313"/>
<path d="M54.3128 98.2734C55.7412 98.2734 56.8991 99.4313 56.8991 100.859C56.8991 102.288 55.7412 103.446 54.3128 103.446C52.8845 103.446 51.7266 102.288 51.7266 100.859C51.7266 99.4313 52.8845 98.2734 54.3128 98.2734Z" fill="#391313"/>
<path d="M59.4827 98.2734C60.9111 98.2734 62.0689 99.4313 62.0689 100.859C62.0689 102.288 60.9111 103.446 59.4827 103.446C58.0544 103.446 56.8965 102.288 56.8965 100.859C56.8965 99.4313 58.0544 98.2734 59.4827 98.2734Z" fill="#391313"/>
<path d="M69.8245 98.2734C71.2529 98.2734 72.4108 99.4313 72.4108 100.859C72.4108 102.288 71.2529 103.446 69.8245 103.446C68.3962 103.446 67.2383 102.288 67.2383 100.859C67.2383 99.4313 68.3962 98.2734 69.8245 98.2734Z" fill="#391313"/>
<path d="M106.03 98.2734C107.458 98.2734 108.616 99.4313 108.616 100.859C108.616 102.288 107.458 103.446 106.03 103.446C104.601 103.446 103.443 102.288 103.443 100.859C103.443 99.4313 104.601 98.2734 106.03 98.2734Z" fill="#391313"/>
<path d="M111.203 98.2734C112.632 98.2734 113.789 99.4313 113.789 100.859C113.789 102.288 112.632 103.446 111.203 103.446C109.775 103.446 108.617 102.288 108.617 100.859C108.617 99.4313 109.775 98.2734 111.203 98.2734Z" fill="#391313"/>
<path d="M116.38 98.2734C117.808 98.2734 118.966 99.4313 118.966 100.859C118.966 102.288 117.808 103.446 116.38 103.446C114.951 103.446 113.793 102.288 113.793 100.859C113.793 99.4313 114.951 98.2734 116.38 98.2734Z" fill="#391313"/>
<path d="M126.724 98.2734C128.152 98.2734 129.31 99.4312 129.31 100.859C129.31 102.288 128.152 103.446 126.724 103.446C125.295 103.446 124.137 102.288 124.137 100.859C124.137 99.4312 125.295 98.2734 126.724 98.2734Z" fill="#391313"/>
<path d="M137.069 98.2734C138.497 98.2734 139.655 99.4312 139.655 100.859C139.655 102.288 138.497 103.446 137.069 103.446C135.64 103.446 134.482 102.288 134.482 100.859C134.482 99.4312 135.64 98.2734 137.069 98.2734Z" fill="#391313"/>
<path d="M142.239 98.2734C143.668 98.2734 144.825 99.4313 144.825 100.859C144.825 102.288 143.668 103.446 142.239 103.446C140.811 103.446 139.654 102.288 139.654 100.859C139.654 99.4313 140.811 98.2734 142.239 98.2734Z" fill="#391313"/>
<path d="M147.413 98.2734C148.841 98.2734 149.999 99.4312 149.999 100.859C149.999 102.288 148.841 103.446 147.413 103.446C145.984 103.446 144.826 102.288 144.826 100.859C144.826 99.4312 145.984 98.2734 147.413 98.2734Z" fill="#391313"/>
<path d="M2.58622 103.447C4.01461 103.447 5.17244 104.604 5.17244 106.033C5.17244 107.461 4.01461 108.619 2.58622 108.619C1.1579 108.619 0 107.461 0 106.033C0 104.604 1.1579 103.447 2.58622 103.447Z" fill="#391313"/>
<path d="M7.75809 103.443C9.18648 103.443 10.3444 104.601 10.3444 106.029C10.3444 107.457 9.18648 108.615 7.75809 108.615C6.32978 108.615 5.17188 107.457 5.17188 106.029C5.17188 104.601 6.32978 103.443 7.75809 103.443Z" fill="#391313"/>
<path d="M23.2738 103.447C24.7021 103.447 25.86 104.604 25.86 106.033C25.86 107.461 24.7021 108.619 23.2738 108.619C21.8454 108.619 20.6875 107.461 20.6875 106.033C20.6875 104.604 21.8454 103.447 23.2738 103.447Z" fill="#391313"/>
<path d="M33.6194 103.443C35.0478 103.443 36.2056 104.601 36.2056 106.029C36.2056 107.457 35.0478 108.615 33.6194 108.615C32.1911 108.615 31.0332 107.457 31.0332 106.029C31.0332 104.601 32.1911 103.443 33.6194 103.443Z" fill="#391313"/>
<path d="M43.9651 103.447C45.3935 103.447 46.5514 104.604 46.5514 106.033C46.5514 107.461 45.3935 108.619 43.9651 108.619C42.5368 108.619 41.3789 107.461 41.3789 106.033C41.3789 104.604 42.5368 103.447 43.9651 103.447Z" fill="#391313"/>
<path d="M49.135 103.445C50.5634 103.445 51.7213 104.603 51.7213 106.032C51.7213 107.46 50.5634 108.618 49.135 108.618C47.7067 108.618 46.5488 107.46 46.5488 106.032C46.5488 104.603 47.7067 103.445 49.135 103.445Z" fill="#391313"/>
<path d="M69.8245 103.447C71.2529 103.447 72.4108 104.604 72.4108 106.033C72.4108 107.461 71.2529 108.619 69.8245 108.619C68.3962 108.619 67.2383 107.461 67.2383 106.033C67.2383 104.604 68.3962 103.447 69.8245 103.447Z" fill="#391313"/>
<path d="M100.862 103.443C102.29 103.443 103.448 104.601 103.448 106.029C103.448 107.457 102.29 108.615 100.862 108.615C99.4333 108.615 98.2754 107.457 98.2754 106.029C98.2754 104.601 99.4333 103.443 100.862 103.443Z" fill="#391313"/>
<path d="M106.03 103.443C107.458 103.443 108.616 104.601 108.616 106.029C108.616 107.457 107.458 108.615 106.03 108.615C104.601 108.615 103.443 107.457 103.443 106.029C103.443 104.601 104.601 103.443 106.03 103.443Z" fill="#391313"/>
<path d="M111.203 103.447C112.632 103.447 113.789 104.604 113.789 106.033C113.789 107.461 112.632 108.619 111.203 108.619C109.775 108.619 108.617 107.461 108.617 106.033C108.617 104.604 109.775 103.447 111.203 103.447Z" fill="#391313"/>
<path d="M116.38 103.447C117.808 103.447 118.966 104.604 118.966 106.033C118.966 107.461 117.808 108.619 116.38 108.619C114.951 108.619 113.793 107.461 113.793 106.033C113.793 104.604 114.951 103.447 116.38 103.447Z" fill="#391313"/>
<path d="M121.555 103.443C122.983 103.443 124.141 104.601 124.141 106.029C124.141 107.457 122.983 108.615 121.555 108.615C120.127 108.615 118.969 107.457 118.969 106.029C118.969 104.601 120.127 103.443 121.555 103.443Z" fill="#391313"/>
<path d="M126.724 103.447C128.152 103.447 129.31 104.604 129.31 106.033C129.31 107.461 128.152 108.619 126.724 108.619C125.295 108.619 124.137 107.461 124.137 106.033C124.137 104.604 125.295 103.447 126.724 103.447Z" fill="#391313"/>
<path d="M131.897 103.443C133.326 103.443 134.484 104.601 134.484 106.029C134.484 107.457 133.326 108.615 131.897 108.615C130.469 108.615 129.311 107.457 129.311 106.029C129.311 104.601 130.469 103.443 131.897 103.443Z" fill="#391313"/>
<path d="M137.069 103.447C138.497 103.447 139.655 104.604 139.655 106.033C139.655 107.461 138.497 108.619 137.069 108.619C135.64 108.619 134.482 107.461 134.482 106.033C134.482 104.604 135.64 103.447 137.069 103.447Z" fill="#391313"/>
<path d="M147.413 103.443C148.841 103.443 149.999 104.601 149.999 106.029C149.999 107.457 148.841 108.615 147.413 108.615C145.984 108.615 144.826 107.457 144.826 106.029C144.826 104.601 145.984 103.443 147.413 103.443Z" fill="#391313"/>
<path d="M43.9653 108.619C45.3937 108.619 46.5514 109.777 46.5514 111.205C46.5514 112.633 45.3935 113.791 43.9651 113.791C42.5368 113.791 41.3789 112.633 41.3789 111.205C41.3789 109.777 42.537 108.619 43.9653 108.619Z" fill="#391313"/>
<path d="M54.3128 108.619C55.7412 108.619 56.8991 109.777 56.8991 111.205C56.8991 112.633 55.7412 113.791 54.3128 113.791C52.8845 113.791 51.7266 112.633 51.7266 111.205C51.7266 109.777 52.8845 108.619 54.3128 108.619Z" fill="#391313"/>
<path d="M64.6546 108.619C66.083 108.619 67.2409 109.777 67.2409 111.205C67.2409 112.633 66.083 113.791 64.6546 113.791C63.2263 113.791 62.0684 112.633 62.0684 111.205C62.0684 109.777 63.2263 108.619 64.6546 108.619Z" fill="#391313"/>
<path d="M74.9944 108.619C76.4228 108.619 77.5806 109.777 77.5806 111.205C77.5806 112.633 76.4228 113.791 74.9944 113.791C73.5661 113.791 72.4082 112.633 72.4082 111.205C72.4082 109.777 73.5661 108.619 74.9944 108.619Z" fill="#391313"/>
<path d="M80.1722 108.619C81.6005 108.619 82.7584 109.777 82.7584 111.205C82.7584 112.633 81.6005 113.791 80.1722 113.791C78.7438 113.791 77.5859 112.633 77.5859 111.205C77.5859 109.777 78.7438 108.619 80.1722 108.619Z" fill="#391313"/>
<path d="M85.3441 108.619C86.7725 108.619 87.9303 109.777 87.9303 111.205C87.9303 112.633 86.7725 113.791 85.3441 113.791C83.9158 113.791 82.7578 112.633 82.7578 111.205C82.7578 109.777 83.9158 108.619 85.3441 108.619Z" fill="#391313"/>
<path d="M106.03 108.619C107.458 108.619 108.616 109.777 108.616 111.205C108.616 112.633 107.458 113.791 106.03 113.791C104.601 113.791 103.443 112.633 103.443 111.205C103.443 109.777 104.601 108.619 106.03 108.619Z" fill="#391313"/>
<path d="M126.724 108.619C128.152 108.619 129.31 109.777 129.31 111.205C129.31 112.633 128.152 113.791 126.724 113.791C125.295 113.791 124.137 112.633 124.137 111.205C124.137 109.777 125.295 108.619 126.724 108.619Z" fill="#391313"/>
<path d="M131.897 108.619C133.326 108.619 134.483 109.777 134.483 111.205C134.483 112.633 133.326 113.791 131.897 113.791C130.469 113.791 129.311 112.633 129.311 111.205C129.311 109.777 130.469 108.619 131.897 108.619Z" fill="#391313"/>
<path d="M137.069 108.619C138.497 108.619 139.655 109.777 139.655 111.205C139.655 112.633 138.497 113.791 137.069 113.791C135.64 113.791 134.482 112.633 134.482 111.205C134.482 109.777 135.64 108.619 137.069 108.619Z" fill="#391313"/>
<path d="M43.9651 113.795C45.3935 113.795 46.5514 114.953 46.5514 116.381C46.5514 117.81 45.3935 118.967 43.9651 118.967C42.5368 118.967 41.3789 117.81 41.3789 116.381C41.3789 114.953 42.5368 113.795 43.9651 113.795Z" fill="#391313"/>
<path d="M49.135 113.795C50.5634 113.795 51.7212 114.953 51.7212 116.381C51.7212 117.81 50.5634 118.967 49.135 118.967C47.7067 118.967 46.5488 117.81 46.5488 116.381C46.5488 114.953 47.7067 113.795 49.135 113.795Z" fill="#391313"/>
<path d="M64.6546 113.795C66.083 113.795 67.2409 114.953 67.2409 116.381C67.2409 117.81 66.083 118.967 64.6546 118.967C63.2263 118.967 62.0684 117.81 62.0684 116.381C62.0684 114.953 63.2263 113.795 64.6546 113.795Z" fill="#391313"/>
<path d="M74.9944 113.795C76.4228 113.795 77.5806 114.953 77.5806 116.381C77.5806 117.81 76.4228 118.967 74.9944 118.967C73.5661 118.967 72.4082 117.81 72.4082 116.381C72.4082 114.953 73.5661 113.795 74.9944 113.795Z" fill="#391313"/>
<path d="M80.1722 113.795C81.6005 113.795 82.7584 114.953 82.7584 116.381C82.7584 117.81 81.6005 118.967 80.1722 118.967C78.7438 118.967 77.5859 117.81 77.5859 116.381C77.5859 114.953 78.7438 113.795 80.1722 113.795Z" fill="#391313"/>
<path d="M100.862 113.795C102.29 113.795 103.448 114.953 103.448 116.381C103.448 117.81 102.29 118.967 100.862 118.967C99.4333 118.967 98.2754 117.81 98.2754 116.381C98.2754 114.953 99.4333 113.795 100.862 113.795Z" fill="#391313"/>
<path d="M106.03 113.795C107.458 113.795 108.616 114.953 108.616 116.381C108.616 117.81 107.458 118.967 106.03 118.967C104.601 118.967 103.443 117.81 103.443 116.381C103.443 114.953 104.601 113.795 106.03 113.795Z" fill="#391313"/>
<path d="M116.38 113.795C117.808 113.795 118.966 114.953 118.966 116.381C118.966 117.81 117.808 118.967 116.38 118.967C114.951 118.967 113.793 117.81 113.793 116.381C113.793 114.953 114.951 113.795 116.38 113.795Z" fill="#391313"/>
<path d="M126.724 113.795C128.152 113.795 129.31 114.953 129.31 116.381C129.31 117.81 128.152 118.967 126.724 118.967C125.295 118.967 124.137 117.81 124.137 116.381C124.137 114.953 125.295 113.795 126.724 113.795Z" fill="#391313"/>
<path d="M137.069 113.795C138.497 113.795 139.655 114.953 139.655 116.381C139.655 117.81 138.497 118.967 137.069 118.967C135.64 118.967 134.482 117.81 134.482 116.381C134.482 114.953 135.64 113.795 137.069 113.795Z" fill="#391313"/>
<path d="M59.4827 118.967C60.9111 118.967 62.0689 120.125 62.0689 121.553C62.0689 122.982 60.9111 124.14 59.4827 124.14C58.0544 124.14 56.8965 122.982 56.8965 121.553C56.8965 120.125 58.0544 118.967 59.4827 118.967Z" fill="#391313"/>
<path d="M64.6547 118.967C66.0831 118.967 67.241 120.125 67.241 121.553C67.241 122.982 66.0831 124.14 64.6547 124.14C63.2264 124.14 62.0684 122.982 62.0684 121.553C62.0684 120.125 63.2264 118.967 64.6547 118.967Z" fill="#391313"/>
<path d="M100.862 118.967C102.29 118.967 103.448 120.125 103.448 121.553C103.448 122.982 102.29 124.14 100.862 124.14C99.4333 124.14 98.2754 122.982 98.2754 121.553C98.2754 120.125 99.4333 118.967 100.862 118.967Z" fill="#391313"/>
<path d="M106.03 118.967C107.458 118.967 108.616 120.125 108.616 121.553C108.616 122.982 107.458 124.14 106.03 124.14C104.601 124.14 103.443 122.982 103.443 121.553C103.443 120.125 104.601 118.967 106.03 118.967Z" fill="#391313"/>
<path d="M126.724 118.967C128.152 118.967 129.31 120.125 129.31 121.553C129.31 122.982 128.152 124.14 126.724 124.14C125.295 124.14 124.137 122.982 124.137 121.553C124.137 120.125 125.295 118.967 126.724 118.967Z" fill="#391313"/>
<path d="M131.897 118.967C133.326 118.967 134.483 120.125 134.483 121.553C134.483 122.982 133.326 124.14 131.897 124.14C130.469 124.14 129.311 122.982 129.311 121.553C129.311 120.125 130.469 118.967 131.897 118.967Z" fill="#391313"/>
<path d="M43.9651 124.139C45.3935 124.139 46.5514 125.297 46.5514 126.725C46.5514 128.153 45.3935 129.311 43.9651 129.311C42.5368 129.311 41.3789 128.153 41.3789 126.725C41.3789 125.297 42.5368 124.139 43.9651 124.139Z" fill="#391313"/>
<path d="M49.135 124.139C50.5634 124.139 51.7213 125.297 51.7213 126.725C51.7213 128.153 50.5634 129.311 49.135 129.311C47.7067 129.311 46.5488 128.153 46.5488 126.725C46.5488 125.297 47.7067 124.139 49.135 124.139Z" fill="#391313"/>
<path d="M59.4827 124.139C60.9111 124.139 62.0689 125.296 62.0689 126.725C62.0689 128.153 60.9111 129.311 59.4827 129.311C58.0544 129.311 56.8965 128.153 56.8965 126.725C56.8965 125.296 58.0544 124.139 59.4827 124.139Z" fill="#391313"/>
<path d="M90.5178 124.139C91.9462 124.139 93.104 125.297 93.104 126.725C93.104 128.153 91.9462 129.311 90.5178 129.311C89.0895 129.311 87.9316 128.153 87.9316 126.725C87.9316 125.297 89.0895 124.139 90.5178 124.139Z" fill="#391313"/>
<path d="M95.6917 124.139C97.1201 124.139 98.2779 125.296 98.2779 126.725C98.2779 128.153 97.1201 129.311 95.6917 129.311C94.2634 129.311 93.1055 128.153 93.1055 126.725C93.1055 125.296 94.2634 124.139 95.6917 124.139Z" fill="#391313"/>
<path d="M100.862 124.139C102.29 124.139 103.448 125.296 103.448 126.725C103.448 128.153 102.29 129.311 100.862 129.311C99.4333 129.311 98.2754 128.153 98.2754 126.725C98.2754 125.296 99.4333 124.139 100.862 124.139Z" fill="#391313"/>
<path d="M106.03 124.139C107.458 124.139 108.616 125.296 108.616 126.725C108.616 128.153 107.458 129.311 106.03 129.311C104.601 129.311 103.443 128.153 103.443 126.725C103.443 125.296 104.601 124.139 106.03 124.139Z" fill="#391313"/>
<path d="M111.203 124.139C112.632 124.139 113.789 125.296 113.789 126.725C113.789 128.153 112.632 129.311 111.203 129.311C109.775 129.311 108.617 128.153 108.617 126.725C108.617 125.296 109.775 124.139 111.203 124.139Z" fill="#391313"/>
<path d="M116.38 124.139C117.808 124.139 118.966 125.296 118.966 126.725C118.966 128.153 117.808 129.311 116.38 129.311C114.951 129.311 113.793 128.153 113.793 126.725C113.793 125.296 114.951 124.139 116.38 124.139Z" fill="#391313"/>
<path d="M121.555 124.139C122.983 124.139 124.141 125.296 124.141 126.725C124.141 128.153 122.983 129.311 121.555 129.311C120.127 129.311 118.969 128.153 118.969 126.725C118.969 125.296 120.127 124.139 121.555 124.139Z" fill="#391313"/>
<path d="M126.724 124.139C128.152 124.139 129.31 125.296 129.31 126.725C129.31 128.153 128.152 129.311 126.724 129.311C125.295 129.311 124.137 128.153 124.137 126.725C124.137 125.296 125.295 124.139 126.724 124.139Z" fill="#391313"/>
<path d="M43.9651 129.311C45.3935 129.311 46.5514 130.469 46.5514 131.897C46.5514 133.325 45.3935 134.483 43.9651 134.483C42.5368 134.483 41.3789 133.325 41.3789 131.897C41.3789 130.469 42.5368 129.311 43.9651 129.311Z" fill="#391313"/>
<path d="M49.1351 129.311C50.5635 129.311 51.7212 130.469 51.7212 131.897C51.7212 133.325 50.5634 134.483 49.135 134.483C47.7067 134.483 46.5488 133.325 46.5488 131.897C46.5488 130.469 47.7068 129.311 49.1351 129.311Z" fill="#391313"/>
<path d="M59.4827 129.311C60.9111 129.311 62.0689 130.469 62.0689 131.897C62.0689 133.325 60.9111 134.483 59.4827 134.483C58.0544 134.483 56.8965 133.325 56.8965 131.897C56.8965 130.469 58.0544 129.311 59.4827 129.311Z" fill="#391313"/>
<path d="M64.6547 129.311C66.0831 129.311 67.241 130.469 67.241 131.897C67.241 133.325 66.0831 134.483 64.6547 134.483C63.2264 134.483 62.0684 133.325 62.0684 131.897C62.0684 130.469 63.2264 129.311 64.6547 129.311Z" fill="#391313"/>
<path d="M74.9944 129.311C76.4228 129.311 77.5806 130.469 77.5806 131.897C77.5806 133.325 76.4228 134.483 74.9944 134.483C73.5661 134.483 72.4082 133.325 72.4082 131.897C72.4082 130.469 73.5661 129.311 74.9944 129.311Z" fill="#391313"/>
<path d="M80.1722 129.311C81.6005 129.311 82.7584 130.469 82.7584 131.897C82.7584 133.325 81.6005 134.483 80.1722 134.483C78.7438 134.483 77.5859 133.325 77.5859 131.897C77.5859 130.469 78.7438 129.311 80.1722 129.311Z" fill="#391313"/>
<path d="M85.3441 129.311C86.7725 129.311 87.9303 130.469 87.9303 131.897C87.9303 133.325 86.7725 134.483 85.3441 134.483C83.9158 134.483 82.7578 133.325 82.7578 131.897C82.7578 130.469 83.9158 129.311 85.3441 129.311Z" fill="#391313"/>
<path d="M90.5179 129.311C91.9463 129.311 93.1041 130.469 93.1041 131.897C93.1041 133.325 91.9463 134.483 90.5179 134.483C89.0896 134.483 87.9316 133.325 87.9316 131.897C87.9316 130.469 89.0896 129.311 90.5179 129.311Z" fill="#391313"/>
<path d="M121.555 129.311C122.983 129.311 124.141 130.469 124.141 131.897C124.141 133.325 122.983 134.483 121.555 134.483C120.127 134.483 118.969 133.325 118.969 131.897C118.969 130.469 120.127 129.311 121.555 129.311Z" fill="#391313"/>
<path d="M142.24 129.311C143.669 129.311 144.826 130.469 144.826 131.897C144.826 133.325 143.669 134.483 142.24 134.483C140.812 134.483 139.654 133.325 139.654 131.897C139.654 130.469 140.812 129.311 142.24 129.311Z" fill="#391313"/>
<path d="M49.135 134.482C50.5634 134.482 51.7212 135.64 51.7212 137.068C51.7212 138.497 50.5634 139.654 49.135 139.654C47.7067 139.654 46.5488 138.497 46.5488 137.068C46.5488 135.64 47.7067 134.482 49.135 134.482Z" fill="#391313"/>
<path d="M59.4827 134.482C60.9111 134.482 62.0689 135.64 62.0689 137.068C62.0689 138.497 60.9111 139.654 59.4827 139.654C58.0544 139.654 56.8965 138.497 56.8965 137.068C56.8965 135.64 58.0544 134.482 59.4827 134.482Z" fill="#391313"/>
<path d="M90.5178 134.482C91.9462 134.482 93.104 135.64 93.104 137.068C93.104 138.497 91.9462 139.654 90.5178 139.654C89.0895 139.654 87.9316 138.497 87.9316 137.068C87.9316 135.64 89.0895 134.482 90.5178 134.482Z" fill="#391313"/>
<path d="M106.03 134.482C107.458 134.482 108.616 135.64 108.616 137.068C108.616 138.497 107.458 139.654 106.03 139.654C104.601 139.654 103.443 138.497 103.443 137.068C103.443 135.64 104.601 134.482 106.03 134.482Z" fill="#391313"/>
<path d="M111.203 134.482C112.632 134.482 113.789 135.64 113.789 137.068C113.789 138.497 112.632 139.654 111.203 139.654C109.775 139.654 108.617 138.497 108.617 137.068C108.617 135.64 109.775 134.482 111.203 134.482Z" fill="#391313"/>
<path d="M121.555 134.482C122.983 134.482 124.141 135.64 124.141 137.068C124.141 138.497 122.983 139.654 121.555 139.654C120.127 139.654 118.969 138.497 118.969 137.068C118.969 135.64 120.127 134.482 121.555 134.482Z" fill="#391313"/>
<path d="M126.724 134.482C128.152 134.482 129.31 135.64 129.31 137.068C129.31 138.497 128.152 139.654 126.724 139.654C125.295 139.654 124.137 138.497 124.137 137.068C124.137 135.64 125.295 134.482 126.724 134.482Z" fill="#391313"/>
<path d="M131.897 134.482C133.326 134.482 134.483 135.64 134.483 137.068C134.483 138.497 133.326 139.654 131.897 139.654C130.469 139.654 129.311 138.497 129.311 137.068C129.311 135.64 130.469 134.482 131.897 134.482Z" fill="#391313"/>
<path d="M142.24 134.482C143.669 134.482 144.826 135.64 144.826 137.068C144.826 138.497 143.669 139.654 142.24 139.654C140.812 139.654 139.654 138.497 139.654 137.068C139.654 135.64 140.812 134.482 142.24 134.482Z" fill="#391313"/>
<path d="M147.413 134.482C148.841 134.482 149.999 135.64 149.999 137.068C149.999 138.497 148.841 139.654 147.413 139.654C145.984 139.654 144.826 138.497 144.826 137.068C144.826 135.64 145.984 134.482 147.413 134.482Z" fill="#391313"/>
<path d="M64.6546 139.652C66.083 139.652 67.2409 140.809 67.2409 142.238C67.2409 143.666 66.083 144.824 64.6546 144.824C63.2263 144.824 62.0684 143.666 62.0684 142.238C62.0684 140.809 63.2263 139.652 64.6546 139.652Z" fill="#391313"/>
<path d="M74.9944 139.652C76.4228 139.652 77.5806 140.809 77.5806 142.238C77.5806 143.666 76.4228 144.824 74.9944 144.824C73.5661 144.824 72.4082 143.666 72.4082 142.238C72.4082 140.809 73.5661 139.652 74.9944 139.652Z" fill="#391313"/>
<path d="M90.5178 139.652C91.9462 139.652 93.104 140.809 93.104 142.238C93.104 143.666 91.9462 144.824 90.5178 144.824C89.0895 144.824 87.9316 143.666 87.9316 142.238C87.9316 140.809 89.0895 139.652 90.5178 139.652Z" fill="#391313"/>
<path d="M95.6898 139.652C97.1182 139.652 98.276 140.809 98.276 142.238C98.276 143.666 97.1182 144.824 95.6898 144.824C94.2615 144.824 93.1035 143.666 93.1035 142.238C93.1035 140.809 94.2615 139.652 95.6898 139.652Z" fill="#391313"/>
<path d="M111.203 139.652C112.632 139.652 113.789 140.809 113.789 142.238C113.789 143.666 112.632 144.824 111.203 144.824C109.775 144.824 108.617 143.666 108.617 142.238C108.617 140.809 109.775 139.652 111.203 139.652Z" fill="#391313"/>
<path d="M126.724 139.652C128.152 139.652 129.31 140.809 129.31 142.238C129.31 143.666 128.152 144.824 126.724 144.824C125.295 144.824 124.137 143.666 124.137 142.238C124.137 140.809 125.295 139.652 126.724 139.652Z" fill="#391313"/>
<path d="M131.897 139.652C133.326 139.652 134.483 140.809 134.483 142.238C134.483 143.666 133.326 144.824 131.897 144.824C130.469 144.824 129.311 143.666 129.311 142.238C129.311 140.809 130.469 139.652 131.897 139.652Z" fill="#391313"/>
<path d="M137.069 139.652C138.497 139.652 139.655 140.809 139.655 142.238C139.655 143.666 138.497 144.824 137.069 144.824C135.64 144.824 134.482 143.666 134.482 142.238C134.482 140.809 135.64 139.652 137.069 139.652Z" fill="#391313"/>
<path d="M147.413 139.652C148.841 139.652 149.999 140.809 149.999 142.238C149.999 143.666 148.841 144.824 147.413 144.824C145.984 144.824 144.826 143.666 144.826 142.238C144.826 140.809 145.984 139.652 147.413 139.652Z" fill="#391313"/>
<path d="M69.8245 144.826C71.2529 144.826 72.4108 145.984 72.4108 147.412C72.4108 148.84 71.2529 149.998 69.8245 149.998C68.3962 149.998 67.2383 148.84 67.2383 147.412C67.2383 145.984 68.3962 144.826 69.8245 144.826Z" fill="#391313"/>
<path d="M74.9944 144.826C76.4228 144.826 77.5807 145.984 77.5807 147.412C77.5807 148.84 76.4228 149.998 74.9944 149.998C73.5661 149.998 72.4082 148.84 72.4082 147.412C72.4082 145.984 73.5661 144.826 74.9944 144.826Z" fill="#391313"/>
<path d="M85.344 144.826C86.7724 144.826 87.9302 145.984 87.9302 147.412C87.9302 148.84 86.7724 149.998 85.344 149.998C83.9157 149.998 82.7578 148.84 82.7578 147.412C82.7578 145.984 83.9157 144.826 85.344 144.826Z" fill="#391313"/>
<path d="M95.6897 144.826C97.1181 144.826 98.2759 145.984 98.2759 147.412C98.2759 148.84 97.1181 149.998 95.6897 149.998C94.2614 149.998 93.1035 148.84 93.1035 147.412C93.1035 145.984 94.2614 144.826 95.6897 144.826Z" fill="#391313"/>
<path d="M100.861 144.826C102.289 144.826 103.447 145.984 103.447 147.412C103.447 148.84 102.289 149.998 100.861 149.998C99.4324 149.998 98.2754 148.84 98.2754 147.412C98.2754 145.984 99.4324 144.826 100.861 144.826Z" fill="#391313"/>
<path d="M106.03 144.826C107.458 144.826 108.616 145.984 108.616 147.412C108.616 148.84 107.458 149.998 106.03 149.998C104.601 149.998 103.443 148.84 103.443 147.412C103.443 145.984 104.601 144.826 106.03 144.826Z" fill="#391313"/>
<path d="M111.203 144.826C112.632 144.826 113.789 145.984 113.789 147.412C113.789 148.84 112.632 149.998 111.203 149.998C109.775 149.998 108.617 148.84 108.617 147.412C108.617 145.984 109.775 144.826 111.203 144.826Z" fill="#391313"/>
<path d="M116.38 144.826C117.808 144.826 118.966 145.984 118.966 147.412C118.966 148.84 117.808 149.998 116.38 149.998C114.951 149.998 113.793 148.84 113.793 147.412C113.793 145.984 114.951 144.826 116.38 144.826Z" fill="#391313"/>
<path d="M121.555 144.826C122.983 144.826 124.141 145.984 124.141 147.412C124.141 148.84 122.983 149.998 121.555 149.998C120.127 149.998 118.969 148.84 118.969 147.412C118.969 145.984 120.127 144.826 121.555 144.826Z" fill="#391313"/>
<path d="M126.724 144.826C128.152 144.826 129.31 145.984 129.31 147.412C129.31 148.84 128.152 149.998 126.724 149.998C125.295 149.998 124.137 148.84 124.137 147.412C124.137 145.984 125.295 144.826 126.724 144.826Z" fill="#391313"/>
<path d="M0 0V36.2065H36.2071V0H0ZM30.776 30.7756H5.43106V5.43098H30.776V30.7756Z" fill="#391313"/>
<path d="M113.793 0V36.2065H150V0H113.793ZM144.569 30.7758H119.224V5.43118H144.569V30.7758Z" fill="#391313"/>
<path d="M0 113.795V150.002H36.2071V113.795H0ZM30.776 144.571H5.43106V119.226H30.776V144.571Z" fill="#391313"/>
<path d="M25.705 18.1013C25.705 16.885 24.864 15.8678 23.7323 15.5922C24.864 15.3168 25.705 14.2995 25.705 13.0831C25.705 11.6552 24.5476 10.498 23.1198 10.498C21.9036 10.498 20.8861 11.3392 20.6107 12.4707C20.3353 11.3392 19.3178 10.498 18.1015 10.498C16.8851 10.498 15.8678 11.3392 15.5924 12.4705C15.317 11.3392 14.2996 10.498 13.0832 10.498C11.6553 10.498 10.498 11.6552 10.498 13.0831C10.498 14.2995 11.3392 15.3168 12.4708 15.5922C11.3392 15.8678 10.498 16.885 10.498 18.1013C10.498 19.3176 11.3392 20.335 12.4708 20.6105C11.3392 20.8859 10.498 21.9033 10.498 23.1196C10.498 24.5473 11.6553 25.7047 13.0832 25.7047C14.2996 25.7047 15.317 24.8637 15.5924 23.732C15.8678 24.8637 16.8851 25.7047 18.1015 25.7047C19.3178 25.7047 20.3353 24.8637 20.6107 23.732C20.8861 24.8637 21.9036 25.7047 23.1198 25.7047C24.5476 25.7047 25.705 24.5473 25.705 23.1196C25.705 21.9033 24.864 20.8859 23.7323 20.6105C24.864 20.335 25.705 19.3176 25.705 18.1013Z" fill="#391313"/>
<path d="M139.498 18.1013C139.498 16.885 138.657 15.8678 137.526 15.5922C138.657 15.3168 139.498 14.2995 139.498 13.0831C139.498 11.6552 138.341 10.498 136.913 10.498C135.697 10.498 134.679 11.3392 134.404 12.4707C134.129 11.3392 133.111 10.498 131.895 10.498C130.678 10.498 129.661 11.3392 129.386 12.4705C129.11 11.3392 128.093 10.498 126.877 10.498C125.449 10.498 124.291 11.6552 124.291 13.0831C124.291 14.2995 125.133 15.3168 126.264 15.5922C125.133 15.8678 124.291 16.885 124.291 18.1013C124.291 19.3176 125.133 20.335 126.264 20.6105C125.133 20.8859 124.291 21.9033 124.291 23.1196C124.291 24.5473 125.449 25.7047 126.877 25.7047C128.093 25.7047 129.11 24.8637 129.386 23.732C129.661 24.8637 130.678 25.7047 131.895 25.7047C133.111 25.7047 134.129 24.8637 134.404 23.732C134.679 24.8637 135.697 25.7047 136.913 25.7047C138.341 25.7047 139.498 24.5473 139.498 23.1196C139.498 21.9033 138.657 20.8859 137.526 20.6105C138.657 20.335 139.498 19.3176 139.498 18.1013Z" fill="#391313"/>
<path d="M25.705 131.892C25.705 130.676 24.864 129.659 23.7323 129.383C24.864 129.108 25.705 128.09 25.705 126.874C25.705 125.446 24.5476 124.289 23.1198 124.289C21.9036 124.289 20.8861 125.13 20.6107 126.261C20.3353 125.13 19.3178 124.289 18.1015 124.289C16.8851 124.289 15.8678 125.13 15.5924 126.261C15.317 125.13 14.2996 124.289 13.0832 124.289C11.6553 124.289 10.498 125.446 10.498 126.874C10.498 128.09 11.3392 129.108 12.4708 129.383C11.3392 129.659 10.498 130.676 10.498 131.892C10.498 133.108 11.3392 134.126 12.4708 134.401C11.3392 134.677 10.498 135.694 10.498 136.91C10.498 138.338 11.6553 139.495 13.0832 139.495C14.2996 139.495 15.317 138.654 15.5924 137.523C15.8678 138.654 16.8851 139.495 18.1015 139.495C19.3178 139.495 20.3353 138.654 20.6107 137.523C20.8861 138.654 21.9036 139.495 23.1198 139.495C24.5476 139.495 25.705 138.338 25.705 136.91C25.705 135.694 24.864 134.677 23.7323 134.401C24.864 134.126 25.705 133.108 25.705 131.892Z" fill="#391313"/>
<path d="M94.5548 85.7053V80.4693H81.4151L90.688 71.326L86.9795 67.5746L77.7063 76.7179V63.8262H72.2998L72.3308 76.6262L63.1227 67.5746L59.318 71.326L68.622 80.4693H55.4512V85.7053H94.5548Z" fill="#391313"/>
</g>
<defs>
<clipPath id="clip0_294_1091">
<rect width="150" height="150" fill="white"/>
</clipPath>
</defs>
</svg>
